<?xml version="1.0" encoding="iso-8859-1"?>
<!-- Generator: Adobe Illustrator 15.1.0, SVG Export Plug-In . SVG Version: 6.00 Build 0)  -->
<!DOCTYPE svg PUBLIC "-//W3C//DTD SVG 1.1//EN" "http://www.w3.org/Graphics/SVG/1.1/DTD/svg11.dtd">
<svg xmlns="http://www.w3.org/2000/svg" xmlns:xlink="http://www.w3.org/1999/xlink" version="1.1" id="Layer_1" x="0px" y="0px" width="512" height="512" viewBox="0 0 128 128" style="enable-background:new 0 0 128 128;" xml:space="preserve">
<g>
	<circle style="fill:#F2CF61;" cx="64" cy="64" r="64"/>
	<path style="fill:#CC9A52;" d="M121.047,93H6.953c1.053,2.066,2.212,4.07,3.477,6h107.143C118.835,97.07,119.994,95.066,121.047,93   z"/>
	<path style="fill:#80241A;" d="M10.43,99c11.43,17.458,31.146,29,53.57,29s42.143-11.542,53.57-29H10.43z"/>
	<path style="fill:#732017;" d="M101.07,106c2.486,0,2.93-1.6,2.93-4.114V99H30v2.886C30,104.4,30.443,106,32.93,106H49h36H101.07z"/>
	<g>
		<path style="fill:#99602E;" d="M35,71V41.673C35,31.667,43.328,25,53.212,25h21.933C85.035,25,94,31.667,94,41.673V71H35z"/>
		<rect x="39" y="68" style="fill:#915B2C;" width="52" height="36"/>
		<path style="fill:#8C5829;" d="M75.145,25h-5C80.035,25,89,31.667,89,41.673V59c0,8-9,9-11,9v1h11v2h5V41.673    C94,31.667,85.035,25,75.145,25z"/>
		<path style="fill:#8C5829;" d="M53.145,25h5C48.254,25,39,31.667,39,41.673V59c0,8,9,9,11,9v1H39v2h-5V41.673    C34,31.667,43.254,25,53.145,25z"/>
		<path style="fill:#805025;" d="M86.441,68H39v2h8h36c2.2,0,4,1.8,4,4v26c0,2.2-1.8,4-4,4h3.441H91v-2V70v-2H86.441z"/>
		<path style="fill:#805025;" d="M43.559,68H91v2h-8H47c-2.2,0-4,1.8-4,4v26c0,2.2,1.8,4,4,4h-3.441H39v-2V70v-2H43.559z"/>
		<path style="fill:#734822;" d="M28,66c-5,0-7.532-2.194-7.532-7.494c0-5.292,4.03-9.4,9.265-9.4c5.244,0,9.269,4.495,9.269,9.791    V62v42h-8.069c-2.486,0-2.931-1.6-2.931-4.114L28,66L28,66z"/>
		<path style="fill:#66401E;" d="M29.732,49.105c-0.703,0-1.383,0.08-2.034,0.221c4.25,0.958,7.302,4.959,7.302,9.57V62v42h4V62    v-3.104C39,53.601,34.977,49.105,29.732,49.105z"/>
		<path style="fill:#734822;" d="M102,66c5,0,7.532-2.194,7.532-7.494c0-5.292-4.03-9.4-9.265-9.4c-5.244,0-9.27,4.495-9.27,9.791    V62v42h8.068c2.486,0,2.932-1.6,2.932-4.114L102,66L102,66z"/>
		<path style="fill:#66401E;" d="M100.268,49.105c-0.334,0-0.662,0.019-0.983,0.055c4.729,0.492,8.25,4.401,8.25,9.346    C107.532,63.806,105,66,100,66v33.886c0,2.515-0.443,4.114-2.93,4.114h2c2.486,0,2.93-1.6,2.93-4.114V66    c5,0,7.532-2.194,7.532-7.494C109.532,53.213,105.502,49.105,100.268,49.105z"/>
		<g>
			<path style="fill:#66401E;" d="M100,54c0,2.667-1.333,4-4,4c2.667,0,4,1.333,4,4c0-2.667,1.333-4,4-4     C101.333,58,100,56.667,100,54z"/>
			<circle style="fill:#263740;" cx="100" cy="58" r="2"/>
			<path style="fill:#1E2C33;" d="M100,56c-0.174,0-0.339,0.029-0.5,0.071c0.861,0.223,1.5,0.998,1.5,1.929s-0.639,1.706-1.5,1.929     C99.661,59.971,99.826,60,100,60c1.104,0,2-0.896,2-2S101.104,56,100,56z"/>
		</g>
		<g>
			<path style="fill:#66401E;" d="M28,54c0,2.667-1.333,4-4,4c2.667,0,4,1.333,4,4c0-2.667,1.333-4,4-4C29.333,58,28,56.667,28,54z"/>
			<circle style="fill:#263740;" cx="28" cy="58" r="2"/>
			<path style="fill:#1E2C33;" d="M28,56c-0.174,0-0.339,0.029-0.5,0.071C28.361,56.294,29,57.069,29,58s-0.639,1.706-1.5,1.929     C27.661,59.971,27.826,60,28,60c1.104,0,2-0.896,2-2S29.104,56,28,56z"/>
		</g>
	</g>
	<path style="fill:#242424;" d="M42,105c0-0.55-0.45-1-1-1h-4c-0.55,0-1,0.45-1,1c0,0.186,0,0.814,0,1c0,0.55,0.45,1,1,1h4   c0.55,0,1-0.45,1-1C42,105.814,42,105.186,42,105z"/>
	<path style="fill:#242424;" d="M94,105c0-0.55-0.45-1-1-1h-4c-0.55,0-1,0.45-1,1c0,0.186,0,0.814,0,1c0,0.55,0.45,1,1,1h4   c0.55,0,1-0.45,1-1C94,105.814,94,105.186,94,105z"/>
</g>
</svg>
