<?xml version="1.0" encoding="iso-8859-1"?>
<!-- Generator: Adobe Illustrator 15.1.0, SVG Export Plug-In . SVG Version: 6.00 Build 0)  -->
<!DOCTYPE svg PUBLIC "-//W3C//DTD SVG 1.1//EN" "http://www.w3.org/Graphics/SVG/1.1/DTD/svg11.dtd">
<svg xmlns="http://www.w3.org/2000/svg" xmlns:xlink="http://www.w3.org/1999/xlink" version="1.1" id="Layer_1" x="0px" y="0px" width="512" height="512" viewBox="0 0 128 128" style="enable-background:new 0 0 128 128;" xml:space="preserve">
<g>
	<circle style="fill:#88C5CC;" cx="64" cy="64" r="64"/>
	<path style="fill:#FFD464;" d="M105.617,51.598c-2.061,13.27-18.213,34.617-33.344,32.269C57.144,81.52,48.22,56.28,50.28,43.011   c2.059-13.266,16.833-25.723,31.962-23.375C97.372,21.983,107.676,38.333,105.617,51.598z"/>
	<path style="fill:#F2C95F;" d="M82.242,19.636c-1.76-0.273-3.516-0.338-5.245-0.232c0.751,0.045,1.504,0.115,2.259,0.232   c15.131,2.348,25.436,18.697,23.375,31.962c-1.884,12.146-15.576,31.044-29.482,32.362c14.871,1.422,30.449-19.347,32.471-32.362   C107.676,38.333,97.372,21.983,82.242,19.636z"/>
	<path style="fill:#F2C95F;" d="M50.28,43.011c-1.208,7.785,1.368,19.684,6.755,28.669c0.186,0.037,0.37,0.084,0.557,0.113   c-0.115,0.08-0.222,0.176-0.331,0.266c1.964,3.2,4.294,6.002,6.938,8.097C64.703,79.214,65,78.121,65,77   c0-2.114-1.048-4.136-2.589-5.208C76.619,69.514,88,47.716,88,35c0-5.221-1.926-10.611-5.172-15.255   c-0.195-0.036-0.389-0.078-0.586-0.109C67.113,17.288,52.339,29.745,50.28,43.011z"/>
	<path style="fill:#406A80;" d="M67.734,126.171c-0.063-0.01-0.123-0.03-0.18-0.063c-0.236-0.142-0.314-0.446-0.176-0.685   c2.943-4.974,2.589-13.823,2.275-21.629c-0.262-6.522-0.487-12.155,1.313-14.317c0.179-0.213,0.494-0.24,0.703-0.063   c0.213,0.177,0.242,0.492,0.065,0.705c-1.557,1.865-1.325,7.584-1.084,13.637c0.316,7.945,0.681,16.95-2.416,22.18   C68.134,126.111,67.93,126.201,67.734,126.171z"/>
	<path style="fill:#FFD464;" d="M76.449,89.575c-0.477,3.065-3.143,5.584-5.861,5.161c-2.712-0.42-4.496-3.631-4.021-6.695   c0.476-3.061,3.148-5.583,5.859-5.162C75.148,83.301,76.924,86.516,76.449,89.575z"/>
	<path style="fill:#F2C95F;" d="M72.428,82.879c-0.337-0.053-0.674-0.059-1.007-0.025c2.158,0.938,3.468,3.735,3.052,6.414   c-0.416,2.685-2.512,4.948-4.852,5.188c0.307,0.134,0.629,0.229,0.967,0.28c2.721,0.424,5.387-2.096,5.861-5.16   C76.924,86.516,75.148,83.301,72.428,82.879z"/>
	<path style="fill:#CC584C;" d="M86,35c0,13.428-12.689,37-28,37c-15.311,0-28-23.572-28-37C30,21.576,42.689,7,58,7   C73.311,7,86,21.576,86,35z"/>
	<path style="fill:#406A80;" d="M60,114.5c-0.063,0-0.125-0.011-0.186-0.036c-0.258-0.103-0.382-0.394-0.278-0.649   c2.146-5.365,0.438-14.057-1.067-21.723c-1.259-6.404-2.346-11.936-0.896-14.35c0.143-0.237,0.452-0.313,0.686-0.172   c0.237,0.143,0.314,0.449,0.172,0.687c-1.25,2.083-0.146,7.698,1.021,13.642c1.532,7.804,3.271,16.646,1.014,22.287   C60.386,114.381,60.198,114.5,60,114.5z"/>
	<path style="fill:#BF5347;" d="M58,7c-0.503,0-1.003,0.018-1.5,0.049C71.131,7.958,83,22.017,83,35   c0,12.987-11.869,35.458-26.5,36.922C56.997,71.971,57.497,72,58,72c15.311,0,28-23.572,28-37C86,21.576,73.311,7,58,7z"/>
	<path style="fill:#CC584C;" d="M63,77c0,3.102-2.247,6-5,6c-2.744,0-5-2.898-5-6c0-3.096,2.256-6,5-6C60.753,71,63,73.904,63,77z"/>
	<path style="fill:#BF5347;" d="M58,71c-0.342,0-0.676,0.045-0.999,0.13C59.277,71.727,61,74.289,61,77   c0,2.715-1.723,5.275-3.999,5.87C57.324,82.955,57.658,83,58,83c2.753,0,5-2.898,5-6C63,73.904,60.753,71,58,71z"/>
	<g>
		<path style="fill:#E66256;" d="M40.341,22.804c-1.469,2.034-2.613,4.241-3.356,6.475l5.313,3.248    c0.438-1.964,1.354-3.971,2.632-5.821L40.341,22.804z"/>
		<path style="fill:#E66256;" d="M50.03,21.641c1.722-1.164,3.625-2.007,5.625-2.391l-1.495-5.842    c-3.12,0.653-6.013,2.063-8.528,3.966L50.03,21.641z"/>
	</g>
	<path style="fill:#F5F5F5;" d="M35,79c-0.327,0-0.648,0.025-0.965,0.063C32.214,76.604,29.299,75,26,75c-5.526,0-10,4.479-10,10   c0,0.331,0.018,0.658,0.05,0.98C14.813,86.893,14,88.346,14,90c0,2.761,2.237,5,5,5c1.065,0,5.521,0,7,0c1.731,0,7.448,0,9,0   c4.421,0,8-3.582,8-8S39.421,79,35,79z"/>
	<path style="fill:#E6E6E6;" d="M35,79c-0.327,0-0.648,0.025-0.965,0.063C32.214,76.604,29.299,75,26,75   c-0.357,0-0.71,0.021-1.058,0.057c2.905,0.273,5.446,1.783,7.093,4.006C32.352,79.025,32.673,79,33,79c4.421,0,8,3.582,8,8   s-3.579,8-8,8c0.86,0,1.583,0,2,0c4.421,0,8-3.582,8-8S39.421,79,35,79z"/>
	<path style="fill:#F5F5F5;" d="M86,94c0.327,0,0.648,0.025,0.965,0.063C88.786,91.604,91.701,90,95,90c5.525,0,10,4.479,10,10   c0,0.331-0.018,0.658-0.05,0.98c1.237,0.91,2.05,2.365,2.05,4.02c0,2.761-2.236,5-5,5c-1.064,0-5.521,0-7,0c-1.73,0-7.448,0-9,0   c-4.421,0-8-3.582-8-8S81.579,94,86,94z"/>
	<path style="fill:#E6E6E6;" d="M104.95,100.98c0.032-0.322,0.05-0.649,0.05-0.98c0-5.521-4.475-10-10-10   c-0.318,0-0.631,0.027-0.941,0.057C99.086,90.585,103,94.835,103,100c0,0.331-0.018,0.658-0.05,0.98   c1.237,0.91,2.05,2.365,2.05,4.02c0,2.761-2.236,5-5,5c0.889,0,1.641,0,2,0c2.764,0,5-2.239,5-5   C107,103.346,106.188,101.893,104.95,100.98z"/>
</g>
</svg>
