<?xml version="1.0" encoding="iso-8859-1"?>
<!-- Generator: Adobe Illustrator 15.1.0, SVG Export Plug-In . SVG Version: 6.00 Build 0)  -->
<!DOCTYPE svg PUBLIC "-//W3C//DTD SVG 1.1//EN" "http://www.w3.org/Graphics/SVG/1.1/DTD/svg11.dtd">
<svg xmlns="http://www.w3.org/2000/svg" xmlns:xlink="http://www.w3.org/1999/xlink" version="1.1" id="Layer_1" x="0px" y="0px" width="512" height="512" viewBox="0 0 128 128" style="enable-background:new 0 0 128 128;" xml:space="preserve">
<g>
	<circle style="fill:#4AB8A1;" cx="64" cy="64" r="64"/>
	<path style="fill:#43A691;" d="M124.613,84.538c-0.047-0.116-0.092-0.231-0.141-0.349c-0.068-0.172-0.139-0.346-0.209-0.518   c-0.066-0.172-0.137-0.342-0.207-0.512c-0.066-0.172-0.137-0.344-0.207-0.514c-0.066-0.172-0.137-0.342-0.207-0.512   c-0.066-0.171-0.137-0.341-0.207-0.511c-0.066-0.172-0.137-0.343-0.207-0.515c-0.066-0.17-0.137-0.338-0.205-0.508   c-0.067-0.172-0.137-0.346-0.209-0.518c-0.066-0.172-0.135-0.342-0.207-0.512c-0.066-0.174-0.135-0.344-0.207-0.514   c-0.066-0.172-0.135-0.342-0.207-0.512c-0.066-0.172-0.135-0.342-0.207-0.512c-0.066-0.172-0.135-0.342-0.207-0.512   c-0.066-0.172-0.135-0.342-0.207-0.513c-0.065-0.17-0.135-0.34-0.204-0.508c-0.067-0.173-0.138-0.345-0.208-0.517   c-0.067-0.172-0.137-0.342-0.207-0.512c-0.067-0.174-0.137-0.344-0.208-0.516c-0.065-0.171-0.136-0.34-0.206-0.509   c-0.066-0.173-0.137-0.345-0.208-0.515c-0.065-0.172-0.136-0.343-0.206-0.511c-0.066-0.172-0.135-0.342-0.206-0.511   c-0.067-0.173-0.137-0.344-0.208-0.516c-0.066-0.174-0.136-0.344-0.207-0.514c-0.066-0.17-0.136-0.34-0.207-0.511   c-0.066-0.172-0.136-0.343-0.208-0.515c-0.067-0.172-0.136-0.342-0.207-0.512c-0.067-0.173-0.136-0.343-0.207-0.513   c-0.065-0.17-0.135-0.339-0.204-0.508c-0.068-0.173-0.138-0.345-0.209-0.517c-0.066-0.174-0.136-0.344-0.207-0.514   c-0.066-0.172-0.136-0.342-0.207-0.512c-0.066-0.172-0.136-0.342-0.207-0.512c-0.065-0.172-0.136-0.342-0.207-0.513   c-0.065-0.172-0.136-0.342-0.207-0.512c-0.064-0.171-0.134-0.339-0.205-0.507c-0.065-0.174-0.137-0.348-0.209-0.52   c-0.065-0.172-0.136-0.342-0.207-0.512c-0.065-0.172-0.136-0.343-0.207-0.513c-0.065-0.172-0.135-0.342-0.207-0.512   c-0.065-0.172-0.135-0.342-0.207-0.512c-0.065-0.172-0.135-0.342-0.207-0.512c-0.064-0.17-0.135-0.339-0.205-0.508   c-0.065-0.173-0.137-0.345-0.206-0.517c-0.067-0.172-0.138-0.342-0.207-0.512c-0.067-0.171-0.138-0.341-0.207-0.51   c-0.067-0.173-0.138-0.344-0.208-0.515c-0.067-0.172-0.139-0.343-0.208-0.513c-0.067-0.171-0.138-0.341-0.206-0.51   c-0.066-0.173-0.139-0.344-0.208-0.515c-0.065-0.169-0.136-0.337-0.204-0.505c-0.066-0.174-0.139-0.347-0.21-0.519   c-0.065-0.171-0.136-0.34-0.206-0.51c-3.014-7.747-10.279-13.368-18.938-13.976c-2.225-1.302-4.803-2.087-7.563-2.087   c-0.337,0-0.668,0.025-1,0.025H86c-5.516,0-10.206,3.727-12.496,8.457c-1.904-3.274-5.443-5.47-9.506-5.47   c-4.062,0-7.601,2.214-9.506,5.489c-2.427-5.015-7.549-8.504-13.494-8.504c-0.337,0-0.668,0.028-1,0.028h0.001   c-2.385,0-4.613,0.894-6.564,2.036c-11.42,0.803-20.437,10.327-20.437,21.951c0,2.474,0.414,4.849,1.167,7.067   c0.243,0.791,0.53,1.563,0.857,2.315c0.13,0.347,0.27,0.688,0.417,1.023c0.129,0.346,0.268,0.686,0.414,1.021   c0.13,0.345,0.268,0.685,0.415,1.021c0.129,0.343,0.266,0.681,0.412,1.015c0.131,0.348,0.271,0.688,0.418,1.026   c0.129,0.345,0.267,0.683,0.413,1.019c0.13,0.344,0.268,0.684,0.414,1.02c0.129,0.344,0.266,0.68,0.411,1.014   c0.131,0.347,0.271,0.688,0.418,1.027c0.13,0.346,0.27,0.688,0.417,1.025c0.128,0.339,0.264,0.674,0.408,1.005   c0.131,0.347,0.271,0.688,0.418,1.028c0.13,0.344,0.268,0.684,0.415,1.02c0.13,0.346,0.269,0.688,0.416,1.023   c0.128,0.34,0.265,0.676,0.409,1.008c0.131,0.348,0.271,0.69,0.419,1.031c0.111,0.293,0.226,0.586,0.349,0.875   c0.201,0.6,0.425,1.188,0.675,1.763c0.131,0.349,0.271,0.692,0.419,1.03c0.129,0.344,0.267,0.684,0.413,1.018   c0.13,0.344,0.268,0.686,0.415,1.021c0.128,0.34,0.266,0.678,0.41,1.01c0.131,0.351,0.272,0.693,0.42,1.035   c0.129,0.342,0.267,0.68,0.412,1.014c0.128,0.341,0.266,0.679,0.411,1.011c0.13,0.349,0.27,0.69,0.417,1.028   c0.13,0.345,0.268,0.685,0.415,1.021c0.13,0.345,0.269,0.687,0.416,1.021c0.128,0.342,0.266,0.678,0.411,1.012   c0.13,0.347,0.27,0.688,0.417,1.024c0.13,0.345,0.268,0.685,0.414,1.021c0.13,0.345,0.269,0.685,0.415,1.021   c0.129,0.343,0.267,0.682,0.412,1.016c0.112,0.297,0.228,0.592,0.352,0.883c0.202,0.604,0.427,1.192,0.679,1.771   c0.129,0.341,0.266,0.679,0.411,1.011c0.131,0.351,0.272,0.692,0.42,1.034c0.129,0.343,0.267,0.681,0.412,1.013   c0.128,0.343,0.266,0.679,0.41,1.013c0.131,0.346,0.271,0.688,0.418,1.026c0.13,0.345,0.268,0.685,0.415,1.021   c0.13,0.346,0.269,0.688,0.416,1.022c0.128,0.34,0.266,0.679,0.41,1.011c0.114,0.303,0.238,0.603,0.365,0.897   C42.646,125.221,52.998,128,64,128C92.159,128,116.053,109.807,124.613,84.538z"/>
	<g>
		<circle style="fill:#B36435;" cx="41" cy="56" r="15"/>
		<path style="fill:#A65D31;" d="M41,41c-0.337,0-0.668,0.028-1,0.05c7.816,0.517,14,7.003,14,14.95s-6.184,14.434-14,14.95    c0.332,0.022,0.663,0.05,1,0.05c8.284,0,15-6.716,15-15S49.284,41,41,41z"/>
		<path style="fill:#E78244;" d="M41,69c-7.168,0-13-5.832-13-13s5.832-13,13-13s13,5.832,13,13S48.168,69,41,69z"/>
		<circle style="fill:#B36435;" cx="87" cy="56" r="15"/>
		<path style="fill:#A65D31;" d="M87,41c-0.337,0-0.668,0.028-1,0.05c7.816,0.517,14,7.003,14,14.95s-6.184,14.434-14,14.95    c0.332,0.022,0.663,0.05,1,0.05c8.284,0,15-6.716,15-15S95.284,41,87,41z"/>
		<path style="fill:#E78244;" d="M87,69c7.168,0,13-5.832,13-13s-5.832-13-13-13s-13,5.832-13,13S79.832,69,87,69z"/>
		<circle style="fill:#1A1A1A;" cx="64" cy="55" r="11"/>
		<path style="fill:#242424;" d="M64,64c-4.962,0-9-4.038-9-9s4.038-9,9-9s9,4.038,9,9S68.962,64,64,64z"/>
		<path style="fill:#E78244;" d="M64,50c-3,0-8,4-13,0c0,5,0,20,0,24c2,0,6-9,13-9s11,9,13,9c0-4,0-19,0-24C72,54,67,50,64,50z"/>
		<path style="fill:#D97A40;" d="M51,50c0,5,0,20,0,24c1.319,0,3.517-3.909,6.864-6.574C57.951,66.629,58,65.82,58,65    c0-5.2-1.809-9.976-4.825-13.741C52.454,50.979,51.728,50.582,51,50z"/>
		<circle style="fill:#1A1A1A;" cx="64" cy="55" r="3"/>
		<circle style="fill:#B36435;" cx="35" cy="65" r="22"/>
		<path style="fill:#A65D31;" d="M35,43c-0.167,0-0.333,0.009-0.5,0.013C46.418,43.28,56,53.017,56,65    c0,11.982-9.582,21.721-21.5,21.986C34.667,86.991,34.833,87,35,87c12.15,0,22-9.85,22-22C57,52.85,47.15,43,35,43z"/>
		<path style="fill:#B36435;" d="M35,85c-11.028,0-20-8.973-20-20c0-11.028,8.972-20,20-20s20,8.972,20,20    C55,76.027,46.028,85,35,85z"/>
		<path style="fill:#96E6D9;" d="M35,84c-10.477,0-19-8.523-19-19c0-10.477,8.523-19,19-19s19,8.523,19,19    C54,75.477,45.477,84,35,84z"/>
		<path style="opacity:0.3;fill:#FFFFFF;enable-background:new    ;" d="M44.863,63.422l7.89-1.263    c-1.221-7.649-7.264-13.692-14.913-14.913l-1.263,7.89C40.828,55.815,44.185,59.172,44.863,63.422z"/>
		<path style="opacity:0.2;fill:#FFFFFF;enable-background:new    ;" d="M25.827,61.047l-7.338-3.162    c-3.068,7.112-1.205,15.452,4.599,20.582l5.294-5.984C25.158,69.632,24.123,64.999,25.827,61.047z"/>
		<circle style="opacity:0.4;fill:#91D2F2;enable-background:new    ;" cx="35" cy="53" r="3"/>
		<circle style="opacity:0.4;fill:#91D2F2;enable-background:new    ;" cx="25" cy="65" r="2"/>
		<circle style="opacity:0.2;fill:#91D2F2;enable-background:new    ;" cx="33" cy="73" r="6"/>
		<circle style="fill:#B36435;" cx="93" cy="65" r="22"/>
		<path style="fill:#A65D31;" d="M93,43c-0.335,0-0.668,0.01-1,0.025c11.686,0.523,21,10.16,21,21.975    c0,11.814-9.314,21.452-21,21.975C92.332,86.99,92.665,87,93,87c12.15,0,22-9.85,22-22C115,52.85,105.15,43,93,43z"/>
		<path style="fill:#B36435;" d="M93,85c-11.027,0-20-8.973-20-20c0-11.028,8.973-20,20-20s20,8.972,20,20    C113,76.027,104.027,85,93,85z"/>
		<path style="fill:#96E6D9;" d="M93,84c-10.477,0-19-8.523-19-19c0-10.477,8.523-19,19-19s19,8.523,19,19    C112,75.477,103.477,84,93,84z"/>
		<path style="opacity:0.3;fill:#FFFFFF;enable-background:new    ;" d="M102.863,63.422l7.89-1.263    c-1.221-7.649-7.265-13.692-14.913-14.913l-1.263,7.89C98.828,55.815,102.186,59.172,102.863,63.422z"/>
		<path style="opacity:0.2;fill:#FFFFFF;enable-background:new    ;" d="M83.827,61.047l-7.339-3.162    c-3.067,7.112-1.204,15.452,4.6,20.582l5.294-5.984C83.158,69.632,82.123,64.999,83.827,61.047z"/>
		<circle style="opacity:0.4;fill:#91D2F2;enable-background:new    ;" cx="93" cy="53" r="3"/>
		<circle style="opacity:0.4;fill:#91D2F2;enable-background:new    ;" cx="83" cy="65" r="2"/>
		<circle style="opacity:0.2;fill:#91D2F2;enable-background:new    ;" cx="91" cy="73" r="6"/>
	</g>
</g>
</svg>
