<?xml version="1.0" encoding="iso-8859-1"?>
<!-- Generator: Adobe Illustrator 15.1.0, SVG Export Plug-In . SVG Version: 6.00 Build 0)  -->
<!DOCTYPE svg PUBLIC "-//W3C//DTD SVG 1.1//EN" "http://www.w3.org/Graphics/SVG/1.1/DTD/svg11.dtd">
<svg xmlns="http://www.w3.org/2000/svg" xmlns:xlink="http://www.w3.org/1999/xlink" version="1.1" id="Layer_1" x="0px" y="0px" width="512" height="512" viewBox="0 0 128 128" style="enable-background:new 0 0 128 128;" xml:space="preserve">
<g>
	<circle style="fill:#88C5CC;" cx="64" cy="64" r="64"/>
	<path style="fill:#263740;" d="M108,64c0,18.789-8.891,34-27,34H46c-18.109,0-26-15.21-26-34H108z"/>
	<path style="fill:#F2E5C2;" d="M72,62h36c0-18.789-8.891-36-27-36h-9V62z"/>
	<path style="fill:#E6D9B8;" d="M81,26h-4c18.109,0,27,17.211,27,36h4C108,43.211,99.109,26,81,26z"/>
	<path style="fill:#1E2C33;" d="M104,64c0,18.789-8.891,34-27,34h4c18.109,0,27-15.211,27-34H104z"/>
	<path style="fill:#F2D891;" d="M51,66V30c0-2.2,1.8-4,4-4h13c2.2,0,4,1.8,4,4v36H51z"/>
	<path style="fill:#E6CD8A;" d="M59,26h-4c-2.2,0-4,1.8-4,4v36h4V30C55,27.8,56.8,26,59,26z"/>
	<path style="fill:#263740;" d="M74,68H49V30c0-3.309,2.691-6,6-6h13c3.309,0,6,2.691,6,6V68z M53,64h17V30c0-1.104-0.896-2-2-2H55   c-1.104,0-2,0.896-2,2V64z"/>
	<path style="fill:#96E6D9;" d="M110,64c0,1.1-0.9,2-2,2H20c-1.1,0-2-0.9-2-2l0,0c0-1.1,0.9-2,2-2h88C109.1,62,110,62.9,110,64   L110,64z"/>
	<path style="fill:#8DD9CC;" d="M108,62h-3c1.1,0,2,0.9,2,2c0,1.1-0.9,2-2,2h3c1.1,0,2-0.9,2-2C110,62.9,109.1,62,108,62z"/>
	
		<line style="fill:none;stroke:#E6CD8A;stroke-width:4;stroke-linecap:round;stroke-miterlimit:10;" x1="22" y1="49" x2="52" y2="76"/>
	<circle style="fill:#CC584C;" cx="52" cy="76" r="4"/>
	<circle style="fill:#242424;" cx="47" cy="103" r="10"/>
	<circle style="fill:#B3B3B3;" cx="47" cy="103" r="6"/>
	<circle style="fill:#242424;" cx="47" cy="103" r="2"/>
	<circle style="fill:#242424;" cx="79" cy="103" r="10"/>
	<circle style="fill:#B3B3B3;" cx="79" cy="103" r="6"/>
	<circle style="fill:#242424;" cx="79" cy="103" r="2"/>
</g>
</svg>
