<?xml version="1.0" encoding="iso-8859-1"?>
<!-- Generator: Adobe Illustrator 15.1.0, SVG Export Plug-In . SVG Version: 6.00 Build 0)  -->
<!DOCTYPE svg PUBLIC "-//W3C//DTD SVG 1.1//EN" "http://www.w3.org/Graphics/SVG/1.1/DTD/svg11.dtd">
<svg xmlns="http://www.w3.org/2000/svg" xmlns:xlink="http://www.w3.org/1999/xlink" version="1.1" id="Layer_1" x="0px" y="0px" width="512" height="512" viewBox="0 0 128 128" style="enable-background:new 0 0 128 128;" xml:space="preserve">
<g>
	<circle style="fill:#88C5CC;" cx="64" cy="64" r="64"/>
	<path style="fill:#80B9BF;" d="M114,37H77.637H75h-1V19H64H54v18h-2.626H14v59l5.596,14.066C31.105,121.163,46.75,128,64,128   c32.924,0,60.029-24.865,63.591-56.839L114,37z"/>
	<polygon style="fill:#FFFFFF;" points="77.637,37 114,37 114,96 14,96 14,37 51.374,37  "/>
	<path style="fill:#E6E6E6;" d="M55,39v1c0,4.964,4.359,9,10,9c5.641,0,10-4.036,10-9v-1H55z"/>
	<path style="fill:#F5F5F5;" d="M64,19H54v20c0,4.964,4.359,9,10,9c5.641,0,10-4.036,10-9V19H64z"/>
	<path style="fill:#E6E6E6;" d="M64,46c-4.486,0-8-3.075-8-7V21h16v18C72,42.925,68.486,46,64,46z"/>
	<rect x="79" y="54" style="fill:#E6E6E6;" width="28" height="35"/>
	<rect x="81" y="56" style="fill:#FFFFFF;" width="24" height="31"/>
	<path style="fill:#CCCCCC;" d="M81,87h24c0-4.884-2.922-10.704-7.109-13.436C99.779,71.535,101,68.574,101,66c0-4.418-3.582-8-8-8   s-8,3.582-8,8c0,2.574,1.221,5.535,3.109,7.564C83.922,76.296,81,82.116,81,87z"/>
	<path style="fill:#CCCCCC;" d="M64,42c-2.206,0-4-1.794-4-4s1.794-4,4-4s4,1.794,4,4S66.206,42,64,42z"/>
	<circle style="fill:#F5F5F5;" cx="64" cy="38" r="2"/>
	<rect x="74" y="37" style="fill:#F2ECDB;" width="1" height="2"/>
	<line style="fill:none;stroke:#E6E6E6;stroke-width:2;stroke-miterlimit:10;" x1="26" y1="65" x2="40" y2="65"/>
	<line style="fill:none;stroke:#E6E6E6;stroke-width:2;stroke-miterlimit:10;" x1="26" y1="69" x2="50" y2="69"/>
	<line style="fill:none;stroke:#E6E6E6;stroke-width:2;stroke-miterlimit:10;" x1="26" y1="73" x2="50" y2="73"/>
</g>
</svg>
