<?xml version="1.0" encoding="iso-8859-1"?>
<!-- Generator: Adobe Illustrator 15.1.0, SVG Export Plug-In . SVG Version: 6.00 Build 0)  -->
<!DOCTYPE svg PUBLIC "-//W3C//DTD SVG 1.1//EN" "http://www.w3.org/Graphics/SVG/1.1/DTD/svg11.dtd">
<svg xmlns="http://www.w3.org/2000/svg" xmlns:xlink="http://www.w3.org/1999/xlink" version="1.1" id="Layer_1" x="0px" y="0px" width="512" height="512" viewBox="0 0 128 128" style="enable-background:new 0 0 128 128;" xml:space="preserve">
<g>
	<circle style="fill:#E16B5A;" cx="64" cy="64" r="64"/>
	<path style="fill:#263740;" d="M77.174,21c0,0-39.174,0-48.174,0c-4,0-6,2-6,6s0,18,0,18h54.174L66.552,87H23v11h81V84.043V42.826   c0,0,0-11.869,0-15.826c0-4-2-6-6-6S77.174,21,77.174,21z"/>
	<path style="fill:#E6E6E6;" d="M59,70c0,6.48-5.319,14-12,14h-5c-6.68,0-12-7.52-12-14V59h29V70z"/>
	<path style="fill:#CCCCCC;" d="M57,59v11c0,6.48-5.319,14-12,14h2c6.681,0,12-7.52,12-14V59H57z"/>
	<path style="fill:#1E2C33;" d="M82,95c-0.55,0-1-0.45-1-1v-8c0-0.55,0.45-1,1-1h16c0.55,0,1,0.45,1,1v8c0,0.55-0.45,1-1,1H82z"/>
	<path style="fill:#172126;" d="M98,85h-1c0.55,0,1,0.45,1,1v8c0,0.55-0.45,1-1,1h1c0.55,0,1-0.45,1-1v-8C99,85.45,98.55,85,98,85z"/>
	<rect x="83" y="87" style="fill:#B3B3B3;" width="7" height="6"/>
	<rect x="90" y="87" style="fill:#E6E6E6;" width="7" height="6"/>
	<path style="fill:#E6E6E6;" d="M32,76h-7c-2.206,0-4-1.794-4-4v-8c0-2.206,1.794-4,4-4h7c1.104,0,2,0.896,2,2v12   C34,75.104,33.104,76,32,76z M25,64v8h5v-8H25z"/>
	<path style="fill:#E6E6E6;" d="M61,57c0,1.1-0.9,2-2,2H30c-1.1,0-2-0.9-2-2l0,0c0-1.1,0.9-2,2-2h29C60.1,55,61,55.9,61,57L61,57z"/>
	<path style="fill:#CCCCCC;" d="M59,55h-2c1.1,0,2,0.9,2,2s-0.9,2-2,2h2c1.1,0,2-0.9,2-2S60.1,55,59,55z"/>
	<rect x="30" y="59" style="fill:#CCCCCC;" width="29" height="1"/>
	
		<line style="fill:none;stroke:#E6E6E6;stroke-width:2;stroke-linecap:round;stroke-miterlimit:10;" x1="85" y1="90" x2="88" y2="90"/>
	<path style="fill:#263740;" d="M19,106v-6c0-1.1,0.9-2,2-2h85c1.1,0,2,0.9,2,2v6H19z"/>
	<rect x="23" y="97" style="fill:#1E2C33;" width="81" height="1"/>
	<path style="fill:#B3B3B3;" d="M27,87v-2c0-0.55,0.45-1,1-1h32c0.55,0,1,0.45,1,1v2H27z"/>
	<path style="fill:#E6E6E6;" d="M56,45v3c0,1.1-0.9,2-2,2H35c-1.1,0-2-0.9-2-2v-3H56z"/>
	<rect x="43" y="50" style="fill:#E6E6E6;" width="3" height="3"/>
	<rect x="43" y="50" style="fill:#CCCCCC;" width="3" height="1"/>
	<path style="fill:#66401E;" d="M16,106v0.309C27.728,119.604,44.879,128,64,128c19.268,0,36.534-8.527,48.268-22H16z"/>
	<rect x="23" y="29" style="fill:#F5F5F5;" width="81" height="1"/>
</g>
</svg>
