<?xml version="1.0" encoding="iso-8859-1"?>
<!-- Generator: Adobe Illustrator 15.1.0, SVG Export Plug-In . SVG Version: 6.00 Build 0)  -->
<!DOCTYPE svg PUBLIC "-//W3C//DTD SVG 1.1//EN" "http://www.w3.org/Graphics/SVG/1.1/DTD/svg11.dtd">
<svg xmlns="http://www.w3.org/2000/svg" xmlns:xlink="http://www.w3.org/1999/xlink" version="1.1" id="Layer_1" x="0px" y="0px" width="512" height="512" viewBox="0 0 128 128" style="enable-background:new 0 0 128 128;" xml:space="preserve">
<g>
	<circle style="fill:#4AB8A1;" cx="64" cy="64" r="64"/>
	<path style="fill:#E6E6E6;" d="M94,44H33v0.025C20.762,44.549,11,54.632,11,67c0,12.703,10.297,23,23,23c19,0,23-14,30-14   c8,0,11,14,30,14c12.703,0,23-10.297,23-23S106.703,44,94,44z"/>
	<g>
		<path style="fill:#CCCCCC;" d="M61,76c-6.787,0-10.755,13.159-28.307,13.961C33.127,89.984,33.561,90,34,90    c17.689,0,22.378-12.13,28.589-13.805C62.078,76.072,61.552,76,61,76z"/>
		<path style="fill:#CCCCCC;" d="M94,44h-3c12.703,0,23,10.297,23,23c0,12.266-9.6,22.283-21.693,22.961    C92.855,89.986,93.42,90,94,90c12.703,0,23-10.297,23-23S106.703,44,94,44z"/>
	</g>
	<path style="fill:#406A80;" d="M64,0c-0.563,0-1.119,0.027-1.678,0.042c-0.495,3.791,0.228,8.937,1.027,14.595   c1.29,9.104,2.75,19.42-0.279,26.992l1.857,0.742c3.228-8.066,1.728-18.665,0.402-28.016c-0.783-5.529-1.528-10.832-0.994-14.348   C64.225,0.008,64.113,0,64,0z"/>
	<path style="fill:#E6E6E6;" d="M68,42L68,42c0-0.55-0.45-1-1-1h-6c-0.55,0-1,0.45-1,1l0,0v2h8V42z"/>
	<rect x="60" y="43" style="fill:#CCCCCC;" width="8" height="1"/>
	<path style="fill:#B3B3B3;" d="M41,62h-4v-4c0-1.1-0.9-2-2-2h-6c-1.1,0-2,0.9-2,2v4h-4c-1.1,0-2,0.9-2,2v6c0,1.1,0.9,2,2,2h4v4   c0,1.1,0.9,2,2,2h6c1.1,0,2-0.9,2-2v-4h4c1.1,0,2-0.9,2-2v-6C43,62.9,42.1,62,41,62z"/>
	<g>
		<path style="fill:#A6A6A6;" d="M36,58v4h1v-4c0-1.1-0.9-2-2-2h-1C35.1,56,36,56.9,36,58z"/>
		<path style="fill:#A6A6A6;" d="M41,62h-1c1.1,0,2,0.9,2,2v6c0,1.1-0.9,2-2,2h1c1.1,0,2-0.9,2-2v-6C43,62.9,42.1,62,41,62z"/>
		<path style="fill:#A6A6A6;" d="M36,76c0,1.1-0.9,2-2,2h1c1.1,0,2-0.9,2-2v-4h-1V76z"/>
	</g>
	<g>
		<polygon style="fill:#999999;" points="32,58 30,60 34,60   "/>
		<polygon style="fill:#999999;" points="32,76 30,74 34,74   "/>
	</g>
	<g>
		<polygon style="fill:#999999;" points="23,67 25,69 25,65   "/>
		<polygon style="fill:#999999;" points="41,67 39,69 39,65   "/>
	</g>
	<circle style="fill:#999999;" cx="32" cy="67" r="2"/>
	<circle style="fill:#242424;" cx="84" cy="67" r="5"/>
	<path style="fill:#1A1A1A;" d="M84,62c-0.171,0-0.333,0.033-0.5,0.051C86.023,62.305,88,64.409,88,67s-1.977,4.695-4.5,4.949   C83.667,71.967,83.829,72,84,72c2.762,0,5-2.238,5-5C89,64.238,86.762,62,84,62z"/>
	<circle style="fill:#FFD464;" cx="94" cy="77" r="5"/>
	<path style="fill:#F2C95F;" d="M94,72c-0.171,0-0.333,0.033-0.5,0.051C96.023,72.305,98,74.409,98,77s-1.977,4.695-4.5,4.949   C93.667,81.967,93.829,82,94,82c2.762,0,5-2.238,5-5S96.762,72,94,72z"/>
	<circle style="fill:#406A80;" cx="94" cy="57" r="5"/>
	<path style="fill:#395F73;" d="M94,52c-0.171,0-0.333,0.033-0.5,0.051C96.023,52.305,98,54.409,98,57s-1.977,4.695-4.5,4.949   C93.667,61.967,93.829,62,94,62c2.762,0,5-2.238,5-5S96.762,52,94,52z"/>
	<circle style="fill:#CC584C;" cx="104" cy="67" r="5"/>
	<path style="fill:#BF5347;" d="M104,62c-0.171,0-0.333,0.033-0.5,0.051c2.523,0.254,4.5,2.358,4.5,4.949s-1.977,4.695-4.5,4.949   C103.667,71.967,103.829,72,104,72c2.762,0,5-2.238,5-5C109,64.238,106.762,62,104,62z"/>
	<path style="fill:#406A80;" d="M57,67c-0.512,0-1.023-0.195-1.414-0.586c-0.781-0.781-0.781-2.047,0-2.828l5-5   c0.781-0.781,2.047-0.781,2.828,0c0.781,0.781,0.781,2.047,0,2.828l-5,5C58.023,66.805,57.512,67,57,67z"/>
	<path style="fill:#406A80;" d="M67,67c-0.512,0-1.023-0.195-1.414-0.586c-0.781-0.781-0.781-2.047,0-2.828l5-5   c0.781-0.781,2.047-0.781,2.828,0c0.781,0.781,0.781,2.047,0,2.828l-5,5C68.023,66.805,67.512,67,67,67z"/>
</g>
</svg>
