<?xml version="1.0" encoding="iso-8859-1"?>
<!-- Generator: Adobe Illustrator 15.1.0, SVG Export Plug-In . SVG Version: 6.00 Build 0)  -->
<!DOCTYPE svg PUBLIC "-//W3C//DTD SVG 1.1//EN" "http://www.w3.org/Graphics/SVG/1.1/DTD/svg11.dtd">
<svg xmlns="http://www.w3.org/2000/svg" xmlns:xlink="http://www.w3.org/1999/xlink" version="1.1" id="Layer_1" x="0px" y="0px" width="512" height="512" viewBox="0 0 128 128" style="enable-background:new 0 0 128 128;" xml:space="preserve">
<g>
	<circle style="fill:#2D4452;" cx="64" cy="64" r="64"/>
	<path style="opacity:0.1;fill:#F5F5F5;enable-background:new    ;" d="M93.698,78.143l34.155-18.27   C125.82,27.971,100.421,2.436,68.58,0.182L50.565,35.009L93.698,78.143z"/>
	<path style="fill:#E16B5A;" d="M30.418,74.955L8.872,96.501c5.507,9.321,13.306,17.12,22.627,22.627l21.548-21.547   c10.299,2.429,21.561,3.896,32.873-7.418L61.94,66.182L38.544,42.787C27.229,54.1,27.99,64.654,30.418,74.955z"/>
	<path style="fill:#F5F5F5;" d="M38.544,42.787l7.827-7.827c1.396-1.397,2.796-1.349,4.194,0.049l43.133,43.134   c1.397,1.397,1.396,2.847,0,4.242l-7.778,7.778L38.544,42.787z"/>
	<path style="fill:#F5F5F5;" d="M11.348,94.023L11.348,94.023c0,0-0.842-1.985-0.143-2.687l10.172-10.172   c0.698-0.698,2.686,0.146,2.686,0.146l0,0L11.348,94.023z"/>
	<path style="fill:#CC584C;" d="M12.477,90.066L12.477,90.066c0,0-0.842-1.985-0.143-2.687l5.085-5.085   c0.7-0.699,2.688,0.143,2.688,0.143l0,0L12.477,90.066z"/>
	
		<rect x="66.326" y="28.382" transform="matrix(0.7071 -0.7071 0.7071 0.7071 -24.1834 65.3779)" style="fill:#406A80;" width="1" height="66.998"/>
	<path style="fill:#D16354;" d="M85.189,90.848c0.244-0.231,0.484-0.438,0.729-0.685l-23.98-23.981L38.543,42.787   c-0.244,0.244-0.451,0.486-0.685,0.729L85.189,90.848z"/>
	<path style="opacity:0.2;fill:#F5F5F5;enable-background:new    ;" d="M80.264,64.707l40.655-29.957   C114.964,23.186,105.6,13.668,94.143,7.538L64,48.443L80.264,64.707z"/>
</g>
</svg>
