<?xml version="1.0" encoding="iso-8859-1"?>
<!-- Generator: Adobe Illustrator 15.1.0, SVG Export Plug-In . SVG Version: 6.00 Build 0)  -->
<!DOCTYPE svg PUBLIC "-//W3C//DTD SVG 1.1//EN" "http://www.w3.org/Graphics/SVG/1.1/DTD/svg11.dtd">
<svg xmlns="http://www.w3.org/2000/svg" xmlns:xlink="http://www.w3.org/1999/xlink" version="1.1" id="Layer_1" x="0px" y="0px" width="512" height="512" viewBox="0 0 128 128" style="enable-background:new 0 0 128 128;" xml:space="preserve">
<g>
	<circle style="fill:#88C5CC;" cx="64" cy="60" r="60"/>
	<rect x="31" y="116" style="fill:#CC584C;" width="59" height="12"/>
	<rect x="86" y="116" style="fill:#BF5347;" width="4" height="12"/>
	<path style="fill:#CC584C;" d="M86,116V32c0-3.3-2.2-6-5.5-6h-39c-3.3,0-6.5,2.7-6.5,6v84H86z"/>
	<path style="fill:#BF5347;" d="M80.5,26h-3c3.3,0,5.5,2.7,5.5,6v84h3V32C86,28.7,83.8,26,80.5,26z"/>
	<path style="fill:#994239;" d="M82,49c0,3.866-3.134,7-7,7H46c-3.866,0-7-3.134-7-7V37c0-3.866,2.134-7,6-7h30c3.866,0,7,3.134,7,7   V49z"/>
	<path style="fill:#B34E42;" d="M86,69h2.5c0.55,0,0.5,0.45,0.5,1v8c0,0.55,0.05,1-0.5,1H86V69z"/>
	<path style="fill:#F5F5F5;" d="M75,31H45c-3,0-5,3-5,6v4v4v4c0,3.3,3.2,6,6.5,6h29c3.3,0,5.5-2.7,5.5-6v-4v-4v-4   C81,33.7,78.3,31,75,31z"/>
	<rect x="35" y="115" style="fill:#B34D43;" width="51" height="1"/>
	<path style="fill:#B34E42;" d="M97,108c-3.309,0-6-2.691-6-6V78c0-0.896-0.854-2-1.75-2c-1.104,0-1.875-0.896-1.875-2   s0.708-2,1.813-2c3.084,0,5.813,2.916,5.813,6v24c0,1.104,0.897,2,2,2s2-0.896,2-2V65c0-1.104,0.896-2,2-2s2,0.896,2,2v37   C103,105.309,100.309,108,97,108z"/>
	<path style="fill:#A6483D;" d="M93,78v24c0,1.104,1.146,2,2.25,2c0.366,0,0.58-0.105,0.875-0.277C95.529,103.375,95,102.736,95,102   V78c0-3.084-2.666-6-5.75-6c-0.273,0-0.66,0.057-0.896,0.155C90.939,72.791,93,75.331,93,78z"/>
	<path style="fill:#A6483D;" d="M101.25,63c-0.366,0-0.83,0.105-1.125,0.277C100.721,63.624,101,64.262,101,65v37   c0,2.967-1.917,5.432-4.75,5.91c0.326,0.055,0.534,0.09,0.875,0.09c3.309,0,5.875-2.691,5.875-6V65   C103,63.896,102.354,63,101.25,63z"/>
	<path style="fill:#808080;" d="M101,53c-1.104,0-2-0.896-2-2v-6.764l-2.645-1.447c-0.988-0.494-1.265-1.695-0.771-2.684   c0.494-0.989,1.758-1.389,2.746-0.895l3.779,2C102.791,41.55,103,42.243,103,43v8C103,52.104,102.104,53,101,53z"/>
	<path style="fill:#B3B3B3;" d="M106,63c0,1.657-1.343,3-3,3h-4c-1.657,0-3-1.343-3-3V52c0-1.657,1.343-3,3-3h4c1.657,0,3,1.343,3,3   V63z"/>
	<path style="fill:#A6A6A6;" d="M103,49h-1c1.657,0,3,1.343,3,3v11c0,1.657-1.343,3-3,3h1c1.657,0,3-1.343,3-3V52   C106,50.343,104.657,49,103,49z"/>
	<rect x="44" y="48" style="fill:#263740;" width="34" height="1"/>
	<rect x="44" y="42" style="fill:#CC584C;" width="4" height="6"/>
	<rect x="48" y="42" style="fill:#E78244;" width="10" height="6"/>
	<rect x="58" y="42" style="fill:#FFD464;" width="12" height="6"/>
	<rect x="70" y="42" style="fill:#198058;" width="8" height="6"/>
	<polygon style="fill:#CC584C;" points="67.5,39 65.5,42 63.5,39  "/>
	<path style="fill:#FFE399;" d="M61,76c-4,3-8,8.582-8,13s3.582,8,8,8s8-3.582,8-8S65,79,61,76z"/>
	<path style="fill:#FFF1CC;" d="M68.837,90.613c-5.374,2.772-10.91-3.022-14.585-6.407C53.476,85.841,53,87.488,53,89   c0,4.418,3.582,8,8,8C64.866,97,68.091,94.258,68.837,90.613z"/>
</g>
</svg>
