<?xml version="1.0" encoding="iso-8859-1"?>
<!-- Generator: Adobe Illustrator 15.1.0, SVG Export Plug-In . SVG Version: 6.00 Build 0)  -->
<!DOCTYPE svg PUBLIC "-//W3C//DTD SVG 1.1//EN" "http://www.w3.org/Graphics/SVG/1.1/DTD/svg11.dtd">
<svg xmlns="http://www.w3.org/2000/svg" xmlns:xlink="http://www.w3.org/1999/xlink" version="1.1" id="Layer_1" x="0px" y="0px" width="512" height="512" viewBox="0 0 128 128" style="enable-background:new 0 0 128 128;" xml:space="preserve">
<g>
	<circle style="fill:#2D4452;" cx="64" cy="64" r="64"/>
	<path style="fill:#233540;" d="M122,91.059V91l-22-54h-3.469l-0.02-0.052c-0.004,0.007-0.007,0.017-0.01,0.025l-0.197-0.521   c-0.003,0.002-0.004,0.004-0.004,0.007l-0.203-0.534c-0.002,0.007-0.007,0.017-0.01,0.025l-0.197-0.521   c-0.002,0.002-0.002,0.004-0.002,0.006l-0.205-0.534c-0.002,0.008-0.007,0.017-0.01,0.025l-0.197-0.521   c-0.002,0.002-0.002,0.004-0.002,0.007l-0.205-0.534c-0.002,0.007-0.006,0.016-0.008,0.023l-0.199-0.52   c0,0.002-0.002,0.004-0.002,0.006l-0.205-0.534c-0.002,0.007-0.004,0.016-0.008,0.025l-0.199-0.521   c0,0.002-0.002,0.004-0.002,0.007l-0.205-0.534c-0.002,0.008-0.004,0.017-0.008,0.025l-0.199-0.521   c0,0.002-0.002,0.004-0.002,0.007l-0.205-0.534c-0.002,0.008-0.004,0.017-0.008,0.025l-0.199-0.521   c0,0.002-0.002,0.004-0.002,0.006l-0.205-0.534c-0.002,0.008-0.004,0.016-0.008,0.025l-0.198-0.521   c-0.001,0.002-0.003,0.004-0.003,0.007L93.2,28.76c-0.002,0.008-0.005,0.017-0.009,0.025l-0.198-0.521   c-0.001,0.002-0.002,0.004-0.002,0.007l-0.205-0.534c-0.002,0.008-0.005,0.017-0.009,0.025l-0.198-0.521   c-0.001,0.002-0.002,0.004-0.002,0.006l-0.205-0.534c-0.002,0.008-0.005,0.016-0.009,0.025l-0.198-0.521   c-0.001,0.002-0.001,0.003-0.002,0.005l-0.204-0.533c-0.002,0.008-0.005,0.017-0.008,0.025l-0.199-0.521   c-0.001,0.002-0.002,0.004-0.002,0.006l-0.205-0.534c-0.002,0.008-0.005,0.016-0.008,0.024l-0.199-0.521   c-0.001,0.002-0.002,0.004-0.002,0.007l-0.205-0.534c-0.002,0.008-0.005,0.016-0.008,0.025l-0.199-0.521   c-0.001,0.002-0.002,0.004-0.002,0.007l-0.205-0.534c-0.006,0.021-0.014,0.042-0.021,0.063l-0.043-0.114   c0,0-2.582-3.565-5.651-3.565c-6.306,0-9.688,8.758-16.218,11.895C68.339,29.789,67.26,29,66,29h-2h-2   c-1.26,0-2.339,0.789-2.782,1.895C52.686,27.758,49.305,19,43,19c-3.07,0-5.652,3.565-5.652,3.565l-0.043,0.114   c-0.008-0.021-0.016-0.043-0.021-0.063l-3.365,8.786l-0.389,0.999c0.004-0.001,0.006-0.003,0.008-0.005l-0.061,0.159   c0,0.377,0.086,0.724,0.234,1.045c0.048,0.413,0.188,0.786,0.425,1.119c0.06,0.371,0.197,0.707,0.414,1.011   c0.06,0.37,0.196,0.706,0.412,1.01c0.015,0.089,0.035,0.175,0.06,0.26H28v1v13l3,6v1v1v1v43l8.654,20.193   C47.161,126.285,55.379,128,64,128C89.673,128,111.805,112.876,122,91.059z"/>
	<path style="fill:#BF5347;" d="M33.477,32.54l0.055-0.139c-0.018,0.013-0.034,0.023-0.053,0.037L33.477,32.54z"/>
	<g>
		<rect x="31" y="51" style="fill:#E6E6E6;" width="66" height="52"/>
		<rect x="31" y="51" style="fill:#CCCCCC;" width="66" height="2"/>
		<rect x="93" y="51" style="fill:#CCCCCC;" width="4" height="52"/>
		<rect x="28" y="37" style="fill:#E6E6E6;" width="72" height="14"/>
		<rect x="96" y="37" style="fill:#CCCCCC;" width="4" height="14"/>
		<rect x="52" y="37" style="fill:#CC584C;" width="8" height="66"/>
		<rect x="52" y="51" style="fill:#BF5347;" width="8" height="2"/>
		<rect x="68" y="37" style="fill:#CC584C;" width="8" height="66"/>
		<rect x="68" y="51" style="fill:#BF5347;" width="8" height="2"/>
		<path style="fill:#B34E42;" d="M64,34.88C45,33,38.617,27.073,37.283,22.616l-3.807,9.939C33.477,38.954,56.16,37,59.999,37h4    C64,37,64,35.864,64,34.88z"/>
		<path style="fill:#CC584C;" d="M64,35.431c-9.727,2.961-20.736-10.521-30.521-2.993l-0.002,0.103l3.871-9.975    c0,0,2.582-3.565,5.652-3.565c7.68,0,11.018,13,21,13c0,1.536,0,3.371,0,3.371V35.431z"/>
		<path style="fill:#B34E42;" d="M64,34.88C83,33,89.383,27.073,90.717,22.616l3.807,9.939C94.523,38.954,71.84,37,68.001,37h-4    C64,37,64,35.864,64,34.88z"/>
		<path style="fill:#CC584C;" d="M64,35.431c9.727,2.961,20.736-10.521,30.521-2.993l0.002,0.103l-3.871-9.975    c0,0-2.582-3.565-5.652-3.565c-7.68,0-11.018,13-21,13c0,1.536,0,3.371,0,3.371V35.431z"/>
		<path style="fill:#CC584C;" d="M69,34c0,1.65-1.35,3-3,3h-4c-1.65,0-3-1.35-3-3v-2c0-1.65,1.35-3,3-3h4c1.65,0,3,1.35,3,3V34z"/>
		<path style="fill:#BF5347;" d="M66,29h-2c1.65,0,3,1.35,3,3v2c0,1.65-1.35,3-3,3h2c1.65,0,3-1.35,3-3v-2C69,30.35,67.65,29,66,29z    "/>
	</g>
</g>
</svg>
