<?xml version="1.0" encoding="iso-8859-1"?>
<!-- Generator: Adobe Illustrator 15.1.0, SVG Export Plug-In . SVG Version: 6.00 Build 0)  -->
<!DOCTYPE svg PUBLIC "-//W3C//DTD SVG 1.1//EN" "https://www.w3.org/Graphics/SVG/1.1/DTD/svg11.dtd">
<svg xmlns="https://www.w3.org/2000/svg" xmlns:xlink="https://www.w3.org/1999/xlink" version="1.1" id="Layer_1" x="0px" y="0px" width="512" height="512" viewBox="0 0 128 128" style="enable-background:new 0 0 128 128;" xml:space="preserve">
<g>
	<circle style="fill:#C2D5D8;" cx="64" cy="64" r="64"/>
	<rect x="41" y="101" style="fill:#CC584C;" width="46" height="9"/>
	<rect x="83" y="101" style="fill:#BF5347;" width="4" height="9"/>
	<rect x="50" y="49" style="fill:#CC584C;" width="28" height="52"/>
	<rect x="74" y="49" style="fill:#BF5347;" width="4" height="52"/>
	<rect x="50" y="50" style="fill:#BF5347;" width="28" height="2"/>
	<rect x="50" y="100" style="fill:#BF5347;" width="28" height="1"/>
	<path style="fill:#CC584C;" d="M55,21c0-4.94,3.822-10,9-10c5.177,0,9,5.06,9,10H55z"/>
	<path style="fill:#D95E51;" d="M63.999,12.104c-0.322-0.187-0.653-0.353-0.999-0.496c-3.585,1.48-6,5.469-6,9.392h2   C59,17.455,60.975,13.857,63.999,12.104z"/>
	<path style="fill:#BF5347;" d="M64,11c-0.34,0-0.673,0.024-1,0.066c4.661,0.6,8,5.317,8,9.934h2C73,16.06,69.177,11,64,11z"/>
	<path style="fill:#CC584C;" d="M64,19c-12.322,0-23,8.24-23,20v11h23h23V39C87,27.24,76.322,19,64,19z"/>
	<path style="fill:#D95E51;" d="M67,23.218C66.004,23.083,65.001,23,64,23c-9.34,0-19,5.985-19,16v11h6V39   C51,30.058,58.702,24.343,67,23.218z"/>
	<path style="fill:#BF5347;" d="M64,19c-0.673,0-1.339,0.029-2,0.077C73.455,19.914,83,27.881,83,39v11h4V39   C87,27.24,76.322,19,64,19z"/>
	<path style="fill:#CC584C;" d="M40,79c-4.939,0-10-3.822-10-9c0-5.177,5.061-9,10-9V79z"/>
	<path style="fill:#BF5347;" d="M38,81c0,1.1,0.9,2,2,2h8c1.1,0,2-0.9,2-2V59c0-1.1-0.9-2-2-2h-8c-1.1,0-2,0.9-2,2V81z"/>
	<path style="fill:#CC584C;" d="M88,79c4.939,0,10-3.822,10-9c0-5.177-5.061-9-10-9V79z"/>
	<path style="fill:#BF5347;" d="M88,61v0.21c4.217,0.856,8,4.313,8,8.79s-3.783,7.934-8,8.79V79c4.939,0,10-3.822,10-9   C98,64.823,92.939,61,88,61z"/>
	<path style="fill:#BF5347;" d="M90,81c0,1.1-0.9,2-2,2h-8c-1.1,0-2-0.9-2-2V59c0-1.1,0.9-2,2-2h8c1.1,0,2,0.9,2,2V81z"/>
	<path style="fill:#B34E42;" d="M88,57h-2c1.1,0,2,0.9,2,2v22c0,1.1-0.9,2-2,2h2c1.1,0,2-0.9,2-2V59C90,57.9,89.1,57,88,57z"/>
	<path style="fill:#B34E42;" d="M48,57h-2c1.1,0,2,0.9,2,2v22c0,1.1-0.9,2-2,2h2c1.1,0,2-0.9,2-2V59C50,57.9,49.1,57,48,57z"/>
	<g>
		<path style="fill:#A6483D;" d="M47,62h-6c-0.553,0-1-0.448-1-1s0.447-1,1-1h6c0.553,0,1,0.448,1,1S47.553,62,47,62z"/>
		<path style="fill:#A6483D;" d="M47,68h-6c-0.553,0-1-0.448-1-1s0.447-1,1-1h6c0.553,0,1,0.448,1,1S47.553,68,47,68z"/>
		<path style="fill:#A6483D;" d="M47,74h-6c-0.553,0-1-0.448-1-1s0.447-1,1-1h6c0.553,0,1,0.448,1,1S47.553,74,47,74z"/>
		<path style="fill:#A6483D;" d="M47,80h-6c-0.553,0-1-0.448-1-1s0.447-1,1-1h6c0.553,0,1,0.448,1,1S47.553,80,47,80z"/>
	</g>
	<g>
		<path style="fill:#A6483D;" d="M87,62h-6c-0.553,0-1-0.448-1-1s0.447-1,1-1h6c0.553,0,1,0.448,1,1S87.553,62,87,62z"/>
		<path style="fill:#A6483D;" d="M87,68h-6c-0.553,0-1-0.448-1-1s0.447-1,1-1h6c0.553,0,1,0.448,1,1S87.553,68,87,68z"/>
		<path style="fill:#A6483D;" d="M87,74h-6c-0.553,0-1-0.448-1-1s0.447-1,1-1h6c0.553,0,1,0.448,1,1S87.553,74,87,74z"/>
		<path style="fill:#A6483D;" d="M87,80h-6c-0.553,0-1-0.448-1-1s0.447-1,1-1h6c0.553,0,1,0.448,1,1S87.553,80,87,80z"/>
	</g>
	<path style="fill:#242424;" d="M19.525,110C31.042,121.136,46.714,128,64,128s32.958-6.864,44.475-18H19.525z"/>
</g>
</svg>
