<?xml version="1.0" encoding="iso-8859-1"?>
<!-- Generator: Adobe Illustrator 15.1.0, SVG Export Plug-In . SVG Version: 6.00 Build 0)  -->
<!DOCTYPE svg PUBLIC "-//W3C//DTD SVG 1.1//EN" "http://www.w3.org/Graphics/SVG/1.1/DTD/svg11.dtd">
<svg xmlns="http://www.w3.org/2000/svg" xmlns:xlink="http://www.w3.org/1999/xlink" version="1.1" id="Layer_1" x="0px" y="0px" width="512" height="512" viewBox="0 0 128 128" style="enable-background:new 0 0 128 128;" xml:space="preserve">
<g>
	<circle style="fill:#2D4452;" cx="64" cy="64" r="64"/>
	<path style="opacity:0.2;fill:#F5F5F5;enable-background:new    ;" d="M100.818,108L87,66H63h-2H41l-13.819,42   C40,108,88,108,100.818,108z"/>
	<path style="fill:#263740;" d="M64,106c-1.104,0-2-0.896-2-2V66c0-1.104,0.896-2,2-2c1.104,0,2,0.896,2,2v38   C66,105.104,65.104,106,64,106z"/>
	<path style="fill:#263740;" d="M78,88c-0.552,0-1-0.448-1-1V66c0-0.552,0.448-1,1-1s1,0.448,1,1v21C79,87.552,78.552,88,78,88z"/>
	<polygon style="fill:#CC584C;" points="95,66 33,66 42,14 86,14  "/>
	<polygon style="fill:#BF5347;" points="86,14 82,14 91,66 95,66  "/>
	<path style="fill:#263740;" d="M89,107H39c-1.104,0-2-0.896-2-2s0.896-2,2-2h50c1.104,0,2,0.896,2,2S90.104,107,89,107z"/>
	<circle style="fill:#CC584C;" cx="78" cy="88" r="5"/>
	<path style="fill:#242424;" d="M16.599,107C28.307,119.898,45.208,128,64,128s35.693-8.102,47.4-21H16.599z"/>
</g>
</svg>
