<?xml version="1.0" encoding="iso-8859-1"?>
<!-- Generator: Adobe Illustrator 15.1.0, SVG Export Plug-In . SVG Version: 6.00 Build 0)  -->
<!DOCTYPE svg PUBLIC "-//W3C//DTD SVG 1.1//EN" "https://www.w3.org/Graphics/SVG/1.1/DTD/svg11.dtd">
<svg xmlns="https://www.w3.org/2000/svg" xmlns:xlink="https://www.w3.org/1999/xlink" version="1.1" id="Layer_1" x="0px" y="0px" width="512" height="512" viewBox="0 0 128 128" style="enable-background:new 0 0 128 128;" xml:space="preserve">
<g>
	<circle style="fill:#91D2F2;" cx="64" cy="64" r="44"/>
	<ellipse style="fill:#2995CC;" cx="64.5" cy="83" rx="50.5" ry="14"/>
	<path style="fill:#C2E2F2;" d="M113.32,70c-28-11-44,31-75,22c-2,15,6,20,6,20l34,1l18-6l11-13l7-16L113.32,70z"/>
	<path style="fill:#8AC7E6;" d="M19,68c28-11,44,31,75,22c2,15-6,20-6,20l-34,1l-18-6L25,92l-7-16L19,68z"/>
	<path style="fill:#F5F5F5;" d="M64,4C30.863,4,4,30.863,4,64c0,33.137,26.863,60,60,60c33.137,0,60-26.863,60-60   C124,30.863,97.137,4,64,4z M64,104c-22.092,0-40-17.909-40-40s17.908-40,40-40s40,17.909,40,40S86.092,104,64,104z"/>
	<g>
		<path style="fill:#E6E6E6;" d="M62,24.051C61.337,24.018,60.671,24,60,24c-22.092,0-40,17.909-40,40s17.908,40,40,40    c0.671,0,1.337-0.018,2-0.051C40.838,102.907,24,85.42,24,64S40.838,25.093,62,24.051z"/>
		<path style="fill:#E6E6E6;" d="M64,4c-0.671,0-1.335,0.029-2,0.051C94.209,5.108,120,31.534,120,64s-25.791,58.893-58,59.949    c0.665,0.021,1.329,0.051,2,0.051c33.137,0,60-26.863,60-60C124,30.863,97.137,4,64,4z"/>
	</g>
	<path style="fill:#CC584C;" d="M74,25c0,1.65-1.35,3-3,3H57c-1.65,0-3-1.35-3-3V3c0-1.65,1.35-3,3-3h14c1.65,0,3,1.35,3,3V25z"/>
	<path style="fill:#BF5347;" d="M71,0h-3c1.65,0,3,1.35,3,3v22c0,1.65-1.35,3-3,3h3c1.65,0,3-1.35,3-3V3C74,1.35,72.65,0,71,0z"/>
	<path style="fill:#CC584C;" d="M74,125c0,1.65-1.35,3-3,3H57c-1.65,0-3-1.35-3-3v-22c0-1.65,1.35-3,3-3h14c1.65,0,3,1.35,3,3V125z"/>
	<path style="fill:#BF5347;" d="M71,100h-3c1.65,0,3,1.35,3,3v22c0,1.65-1.35,3-3,3h3c1.65,0,3-1.35,3-3v-22   C74,101.35,72.65,100,71,100z"/>
	<path style="fill:#CC584C;" d="M25,54c1.65,0,3,1.35,3,3v14c0,1.65-1.35,3-3,3H3c-1.648,0-3-1.35-3-3V57c0-1.65,1.352-3,3-3H25z"/>
	<path style="fill:#BF5347;" d="M25,54h-3c1.65,0,3,1.35,3,3v14c0,1.65-1.35,3-3,3h3c1.65,0,3-1.35,3-3V57C28,55.35,26.65,54,25,54z   "/>
	<path style="fill:#CC584C;" d="M125,54c1.65,0,3,1.35,3,3v14c0,1.65-1.35,3-3,3h-22c-1.648,0-3-1.35-3-3V57c0-1.65,1.352-3,3-3H125   z"/>
	<path style="fill:#BF5347;" d="M125,54h-3c1.65,0,3,1.35,3,3v14c0,1.65-1.35,3-3,3h3c1.65,0,3-1.35,3-3V57   C128,55.35,126.65,54,125,54z"/>
	<circle style="fill:#FFE399;" cx="52" cy="49" r="10"/>
</g>
</svg>
