<?xml version="1.0" encoding="iso-8859-1"?>
<!-- Generator: Adobe Illustrator 15.1.0, SVG Export Plug-In . SVG Version: 6.00 Build 0)  -->
<!DOCTYPE svg PUBLIC "-//W3C//DTD SVG 1.1//EN" "http://www.w3.org/Graphics/SVG/1.1/DTD/svg11.dtd">
<svg xmlns="http://www.w3.org/2000/svg" xmlns:xlink="http://www.w3.org/1999/xlink" version="1.1" id="Layer_1" x="0px" y="0px" width="512" height="512" viewBox="0 0 128 128" style="enable-background:new 0 0 128 128;" xml:space="preserve">
<g>
	<circle style="fill:#88C5CC;" cx="64" cy="64" r="64"/>
	<path style="fill:#E6E6E6;" d="M64,106c-1.104,0-2-0.896-2-2V88c0-1.104,0.896-2,2-2c1.104,0,2,0.896,2,2v16   C66,105.104,65.104,106,64,106z"/>
	<path style="fill:#CCCCCC;" d="M64,86c-0.366,0-0.705,0.105-1,0.277c0.595,0.347,1,0.982,1,1.723v16c0,0.738-0.405,1.376-1,1.723   c0.295,0.172,0.634,0.277,1,0.277c1.104,0,2-0.896,2-2V88C66,86.896,65.104,86,64,86z"/>
	<path style="fill:#E6E6E6;" d="M82,107H46c-1.104,0-2-0.896-2-2s0.896-2,2-2h36c1.104,0,2,0.896,2,2S83.104,107,82,107z"/>
	<path style="fill:#CCCCCC;" d="M82,103h-2c1.104,0,2,0.896,2,2s-0.896,2-2,2h2c1.104,0,2-0.896,2-2S83.104,103,82,103z"/>
	<path style="fill:#E6E6E6;" d="M64,90c-22.907,0-43-19.626-43-42c0-1.104,0.896-2,2-2h10c1.104,0,2,0.896,2,2s-0.896,2-2,2h-7.932   C26.244,67.396,42.506,86,64,86s37.756-18.604,38.932-36H96c-1.104,0-2-0.896-2-2s0.896-2,2-2h9c1.104,0,2,0.896,2,2   C107,70.374,86.907,90,64,90z"/>
	<g>
		<path style="fill:#CCCCCC;" d="M33,48c0,1.104-0.896,2-2,2h2c1.104,0,2-0.896,2-2s-0.896-2-2-2h-2C32.104,46,33,46.896,33,48z"/>
		<path style="fill:#CCCCCC;" d="M23.068,50C24.244,67.396,40.506,86,62,86c0.336,0,0.667-0.018,1-0.027    C42.005,85.406,26.225,67.124,25.068,50H23.068z"/>
		<path style="fill:#CCCCCC;" d="M105,46h-2c1.104,0,2,0.896,2,2c0,22.047-19.514,41.412-42,41.975C63.333,89.982,63.665,90,64,90    c22.907,0,43-19.626,43-42C107,46.896,106.104,46,105,46z"/>
	</g>
	<path style="fill:#99602E;" d="M64,84c-19.301,0-35.003-15.702-35.003-35.002C28.997,29.7,44.699,14,64,14   c19.297,0,34.997,15.7,34.997,34.998C98.997,68.298,83.297,84,64,84z"/>
	<path style="fill:#99602E;" d="M64,14c-0.335,0-0.667,0.016-1,0.025c18.835,0.531,33.997,16.01,33.997,34.973   c0,18.965-15.161,34.443-33.997,34.977C63.333,83.984,63.665,84,64,84c19.297,0,34.997-15.702,34.997-35.002   C98.997,29.7,83.297,14,64,14z"/>
	<path style="fill:#C2E2F2;" d="M94.997,48.998C94.997,66.12,81.115,80,64,80c-17.123,0-31.003-13.88-31.003-31.002   C32.997,31.885,46.877,18,64,18C81.115,18,94.997,31.885,94.997,48.998z"/>
	<g style="opacity:0.3;">
		<path style="fill:#FFFFFF;" d="M47,39c-0.256,0-0.512-0.098-0.707-0.293c-0.391-0.391-0.391-1.023,0-1.414l10-10    c0.391-0.391,1.023-0.391,1.414,0s0.391,1.023,0,1.414l-10,10C47.512,38.902,47.256,39,47,39z"/>
		<path style="fill:#FFFFFF;" d="M43,50c-0.256,0-0.512-0.098-0.707-0.293c-0.391-0.391-0.391-1.023,0-1.414l25-25    c0.391-0.391,1.023-0.391,1.414,0s0.391,1.023,0,1.414l-25,25C43.512,49.902,43.256,50,43,50z"/>
	</g>
	<path style="fill:#8C582A;" d="M17,107v0.424C28.692,120.072,45.417,128,64,128c18.793,0,35.693-8.102,47.4-21H17z"/>
	<g style="opacity:0.2;">
		<path style="fill:#FFFFFF;" d="M77.5,52.639l12.43,3.856c0.689-2.382,1.067-4.896,1.067-7.497c0-1.387-0.106-2.748-0.308-4.079    l-12.938,1.522c0.153,0.83,0.245,1.683,0.245,2.558C77.997,50.26,77.814,51.477,77.5,52.639z"/>
		<path style="fill:#FFFFFF;" d="M76.363,55.545c-1.338,2.518-3.42,4.573-5.952,5.887l4.583,12.218    c5.656-2.532,10.285-6.957,13.084-12.464L76.363,55.545z"/>
		<path style="fill:#FFFFFF;" d="M64,63L64,63c-2.939,0-5.666-0.914-7.921-2.467l-5.467,11.898c3.95,2.266,8.518,3.566,13.388,3.566    V63z"/>
	</g>
</g>
</svg>
