<?xml version="1.0" encoding="iso-8859-1"?>
<!-- Generator: Adobe Illustrator 15.1.0, SVG Export Plug-In . SVG Version: 6.00 Build 0)  -->
<!DOCTYPE svg PUBLIC "-//W3C//DTD SVG 1.1//EN" "http://www.w3.org/Graphics/SVG/1.1/DTD/svg11.dtd">
<svg xmlns="http://www.w3.org/2000/svg" xmlns:xlink="http://www.w3.org/1999/xlink" version="1.1" id="Layer_1" x="0px" y="0px" width="512" height="512" viewBox="0 0 128 128" style="enable-background:new 0 0 128 128;" xml:space="preserve">
<g>
	<circle style="fill:#E16B5A;" cx="64" cy="64" r="64"/>
	<g>
		<path style="fill:#F5F5F5;" d="M108,93c0,2.2-1.8,4-4,4H24c-2.2,0-4-1.8-4-4V45c0-2.2,1.8-4,4-4h80c2.2,0,4,1.8,4,4V93z"/>
		<path style="fill:#4AB8A1;" d="M24,95c-1.103,0-2-0.896-2-2V45c0-1.103,0.897-2,2-2h80c1.104,0,2,0.897,2,2v48    c0,1.104-0.896,2-2,2H24z"/>
		<rect x="33" y="41" style="fill:#263740;" width="9" height="56"/>
		<path style="fill:#406A80;" d="M33,41v-2c0-0.55,0.45-1,1-1h7c0.55,0,1,0.45,1,1v2H33z"/>
		<rect x="42" y="43" style="fill:#43A691;" width="1" height="52"/>
		<rect x="85" y="41" style="fill:#263740;" width="9" height="56"/>
		<path style="fill:#406A80;" d="M85,41v-2c0-0.55,0.45-1,1-1h7c0.55,0,1,0.45,1,1v2H85z"/>
		<rect x="94" y="43" style="fill:#43A691;" width="1" height="52"/>
		<rect x="42" y="41" style="fill:#CCCCCC;" width="1" height="2"/>
		<rect x="42" y="95" style="fill:#CCCCCC;" width="1" height="2"/>
		<rect x="94" y="41" style="fill:#CCCCCC;" width="1" height="2"/>
		<rect x="94" y="95" style="fill:#CCCCCC;" width="1" height="2"/>
		<path style="fill:none;stroke:#E6E6E6;stroke-width:2;stroke-miterlimit:10;" d="M73,41v-4c0-1.1-0.9-2-2-2H55c-1.1,0-2,0.9-2,2v4    "/>
		<path style="fill:#242424;" d="M70,36c0,1.1-0.9,2-2,2H58c-1.1,0-2-0.9-2-2v-2c0-1.1,0.9-2,2-2h10c1.1,0,2,0.9,2,2V36z"/>
		<path style="fill:#1A1A1A;" d="M68,32h-2c1.1,0,2,0.9,2,2v2c0,1.1-0.9,2-2,2h2c1.1,0,2-0.9,2-2v-2C70,32.9,69.1,32,68,32z"/>
	</g>
</g>
</svg>
