<?xml version="1.0" encoding="iso-8859-1"?>
<!-- Generator: Adobe Illustrator 15.1.0, SVG Export Plug-In . SVG Version: 6.00 Build 0)  -->
<!DOCTYPE svg PUBLIC "-//W3C//DTD SVG 1.1//EN" "http://www.w3.org/Graphics/SVG/1.1/DTD/svg11.dtd">
<svg xmlns="http://www.w3.org/2000/svg" xmlns:xlink="http://www.w3.org/1999/xlink" version="1.1" id="Layer_1" x="0px" y="0px" width="512" height="512" viewBox="0 0 128 128" style="enable-background:new 0 0 128 128;" xml:space="preserve">
<g>
	<circle style="fill:#4AB8A1;" cx="64" cy="64" r="64"/>
	<g>
		<g>
			<g>
				<defs>
					<circle id="SVGID_1_" cx="64" cy="64" r="64"/>
				</defs>
				<clipPath id="SVGID_2_">
					<use xlink:href="#SVGID_1_" style="overflow:visible;"/>
				</clipPath>
				<g style="clip-path:url(#SVGID_2_);">
					<path style="fill:#CCCCCC;" d="M166,133c0,3.301-2.699,6-6,6H40c-3.301,0-6-2.699-6-6V61c0-3.301,2.699-6,6-6h120       c3.301,0,6,2.699,6,6V133z"/>
					<path style="fill:#B3B3B3;" d="M40,136c-1.654,0-3-1.346-3-3V61c0-1.654,1.346-3,3-3h120c1.654,0,3,1.346,3,3v72       c0,1.654-1.346,3-3,3H40z"/>
					<g>
						<rect x="53" y="55" style="fill:#263740;" width="14" height="84"/>
						<path style="fill:#406A80;" d="M53,55v-3c0-0.824,1.176-1,2-1h10.5c0.824,0,1.5,0.176,1.5,1v3H53z"/>
						<rect x="67" y="58" style="fill:#A6A6A6;" width="1" height="78"/>
						<rect x="131" y="55" style="fill:#263740;" width="14" height="84"/>
						<path style="fill:#406A80;" d="M131,55v-3c0-0.824,1.176-1,2-1h10.5c0.824,0,1.5,0.176,1.5,1v3H131z"/>
						<rect x="145" y="58" style="fill:#A6A6A6;" width="1" height="78"/>
						<rect x="67" y="55" style="fill:#B3B3B3;" width="1" height="3"/>
						<rect x="67" y="136" style="fill:#B3B3B3;" width="1" height="3"/>
						<rect x="145" y="55" style="fill:#B3B3B3;" width="1" height="3"/>
						<rect x="145" y="136" style="fill:#B3B3B3;" width="1" height="3"/>
					</g>
					<path style="fill:none;stroke:#E6E6E6;stroke-width:2;stroke-miterlimit:10;" d="M113,55v-6c0-1.648-1.352-3-3-3H86       c-1.648,0-3,1.352-3,3v6"/>
					<path style="fill:#242424;" d="M108,47c0,1.657-1.343,3-3,3H91c-1.657,0-3-1.343-3-3v-2c0-1.657,1.343-3,3-3h14       c1.657,0,3,1.343,3,3V47z"/>
					<path style="fill:#1A1A1A;" d="M105,42h-4c1.657,0,3,1.343,3,3v2c0,1.657-1.343,3-3,3h4c1.657,0,3-1.343,3-3v-2       C108,43.343,106.657,42,105,42z"/>
				</g>
			</g>
		</g>
	</g>
</g>
</svg>
