<?xml version="1.0" encoding="iso-8859-1"?>
<!-- Generator: Adobe Illustrator 15.1.0, SVG Export Plug-In . SVG Version: 6.00 Build 0)  -->
<!DOCTYPE svg PUBLIC "-//W3C//DTD SVG 1.1//EN" "http://www.w3.org/Graphics/SVG/1.1/DTD/svg11.dtd">
<svg xmlns="http://www.w3.org/2000/svg" xmlns:xlink="http://www.w3.org/1999/xlink" version="1.1" id="Layer_1" x="0px" y="0px" width="512" height="512" viewBox="0 0 128 128" style="enable-background:new 0 0 128 128;" xml:space="preserve">
<g>
	<circle style="fill:#F2CF61;" cx="64" cy="64" r="64"/>
	<path style="fill:#E6C45C;" d="M119.741,95.436c-0.022-0.054-0.042-0.107-0.066-0.162c-0.069-0.17-0.129-0.344-0.206-0.508   c-0.068-0.172-0.129-0.347-0.207-0.514c-0.068-0.171-0.13-0.345-0.207-0.512c-0.068-0.172-0.13-0.346-0.207-0.514   c-0.07-0.172-0.131-0.35-0.209-0.518c-0.068-0.169-0.127-0.343-0.205-0.508c-0.07-0.172-0.131-0.35-0.209-0.518   c-0.066-0.17-0.127-0.344-0.205-0.508c-0.067-0.172-0.129-0.347-0.207-0.514c-0.067-0.171-0.129-0.346-0.207-0.512   c-0.068-0.172-0.131-0.349-0.207-0.519c-0.068-0.169-0.129-0.343-0.207-0.508c-0.067-0.171-0.129-0.347-0.207-0.513   c-0.068-0.174-0.131-0.35-0.207-0.518c-0.068-0.17-0.129-0.344-0.207-0.509c-0.068-0.173-0.131-0.349-0.207-0.517   c-0.067-0.168-0.127-0.34-0.203-0.504c-0.07-0.174-0.133-0.353-0.21-0.521c-0.068-0.169-0.13-0.343-0.205-0.508   c-0.07-0.174-0.132-0.35-0.209-0.518c-0.068-0.168-0.128-0.343-0.205-0.509c-0.069-0.17-0.13-0.346-0.207-0.513   c-0.069-0.173-0.131-0.35-0.209-0.518c-0.067-0.168-0.127-0.34-0.203-0.504c-0.069-0.174-0.132-0.352-0.21-0.521   c-0.068-0.169-0.129-0.343-0.206-0.509c-0.069-0.172-0.131-0.35-0.208-0.518c-0.068-0.168-0.129-0.343-0.206-0.508   c-0.069-0.172-0.131-0.348-0.208-0.518c-0.068-0.168-0.129-0.342-0.206-0.508c-0.067-0.17-0.128-0.345-0.204-0.509   c-0.07-0.174-0.132-0.352-0.211-0.521c-0.066-0.17-0.128-0.344-0.203-0.508c-0.07-0.174-0.133-0.351-0.209-0.519   c-0.068-0.168-0.13-0.343-0.205-0.508c-0.07-0.172-0.133-0.349-0.209-0.517c-0.068-0.17-0.129-0.344-0.205-0.51   c-0.07-0.172-0.131-0.349-0.209-0.517c-0.068-0.168-0.127-0.34-0.203-0.504c-0.07-0.175-0.133-0.351-0.211-0.521   c-0.068-0.17-0.129-0.344-0.205-0.508c-0.069-0.172-0.129-0.347-0.207-0.514c-0.07-0.173-0.131-0.349-0.209-0.519   c-0.068-0.168-0.129-0.342-0.205-0.508c-0.07-0.172-0.131-0.349-0.209-0.518c-0.067-0.168-0.127-0.34-0.203-0.504   c-0.07-0.174-0.131-0.351-0.211-0.521c-0.067-0.17-0.127-0.344-0.204-0.508c-0.07-0.174-0.132-0.351-0.209-0.519   c-0.068-0.168-0.128-0.344-0.205-0.508c-0.069-0.172-0.13-0.346-0.207-0.514c-0.07-0.172-0.131-0.35-0.209-0.518   c-0.067-0.168-0.127-0.34-0.203-0.504c-0.069-0.174-0.132-0.351-0.21-0.521c-0.068-0.17-0.129-0.345-0.206-0.509   c-0.069-0.174-0.131-0.35-0.208-0.518c-0.068-0.169-0.129-0.344-0.206-0.508c-0.069-0.172-0.131-0.348-0.208-0.518   c-0.068-0.17-0.129-0.344-0.206-0.508c-0.069-0.17-0.128-0.345-0.204-0.51c-0.07-0.175-0.132-0.351-0.211-0.521   c-0.068-0.17-0.128-0.344-0.205-0.509c-0.07-0.173-0.131-0.349-0.209-0.517c-0.068-0.17-0.128-0.344-0.205-0.508   c-0.07-0.172-0.131-0.349-0.209-0.518c-0.068-0.169-0.127-0.343-0.205-0.508c-0.07-0.173-0.131-0.35-0.209-0.518   c-0.066-0.168-0.127-0.34-0.203-0.504c-0.068-0.172-0.129-0.349-0.207-0.517c-0.069-0.173-0.131-0.349-0.209-0.517   c-0.067-0.17-0.129-0.344-0.205-0.508c-0.069-0.172-0.131-0.349-0.209-0.518c-0.067-0.169-0.129-0.343-0.205-0.508   c-0.069-0.174-0.131-0.35-0.209-0.518c-0.066-0.168-0.127-0.34-0.202-0.504c-0.07-0.174-0.132-0.351-0.212-0.521   c-0.066-0.169-0.127-0.343-0.203-0.509c-0.069-0.17-0.131-0.346-0.207-0.512c-0.07-0.173-0.133-0.349-0.209-0.518   c-0.068-0.169-0.128-0.343-0.205-0.508c-0.07-0.174-0.131-0.35-0.209-0.518c-0.066-0.168-0.127-0.34-0.203-0.504   c-0.068-0.174-0.132-0.351-0.21-0.521c-0.067-0.169-0.129-0.343-0.206-0.509c-0.068-0.172-0.131-0.349-0.208-0.517   c-0.067-0.169-0.129-0.343-0.206-0.508c-0.068-0.172-0.131-0.349-0.208-0.517c-0.067-0.17-0.129-0.344-0.206-0.508   c-0.068-0.172-0.129-0.347-0.207-0.514c-0.068-0.171-0.129-0.346-0.207-0.513c-0.068-0.171-0.13-0.345-0.205-0.513   c-0.07-0.172-0.133-0.349-0.209-0.517c-0.068-0.169-0.13-0.343-0.205-0.508c-0.07-0.172-0.133-0.349-0.209-0.517   c-0.068-0.17-0.13-0.344-0.205-0.508c-0.07-0.174-0.131-0.35-0.209-0.518c-0.068-0.168-0.127-0.34-0.203-0.504   c-0.07-0.174-0.131-0.35-0.209-0.518c-0.069-0.173-0.131-0.349-0.207-0.517c-0.069-0.169-0.129-0.343-0.207-0.508   c-0.069-0.173-0.131-0.349-0.207-0.517c-0.069-0.17-0.129-0.344-0.207-0.509c-0.069-0.173-0.131-0.349-0.207-0.517   c-0.068-0.168-0.127-0.34-0.204-0.504c-0.07-0.174-0.132-0.353-0.21-0.521c-0.068-0.169-0.129-0.343-0.205-0.508   c-0.069-0.171-0.131-0.346-0.207-0.514c-0.07-0.172-0.131-0.348-0.209-0.516c-0.068-0.17-0.128-0.344-0.205-0.509   c-0.07-0.173-0.131-0.349-0.209-0.517c-0.068-0.168-0.127-0.34-0.203-0.504c-0.07-0.174-0.132-0.352-0.21-0.521   c-0.069-0.169-0.129-0.343-0.206-0.508c-0.07-0.173-0.131-0.35-0.208-0.518c-0.069-0.168-0.129-0.342-0.206-0.508   c-0.068-0.171-0.129-0.346-0.207-0.513c-0.07-0.173-0.131-0.349-0.208-0.517c-0.067-0.168-0.127-0.34-0.204-0.504   c-0.07-0.174-0.131-0.352-0.21-0.521c-0.067-0.169-0.128-0.343-0.204-0.508c-0.07-0.174-0.132-0.35-0.209-0.518   c-0.068-0.168-0.129-0.343-0.205-0.508c-0.07-0.172-0.132-0.348-0.209-0.517c-0.068-0.169-0.129-0.343-0.205-0.509   c-0.07-0.172-0.131-0.349-0.209-0.517c-0.067-0.168-0.127-0.34-0.203-0.504c-0.069-0.173-0.131-0.349-0.209-0.517   c-0.068-0.174-0.131-0.35-0.207-0.518C91.359,25.209,86.648,22,81.107,22c-0.239,0-0.479,0.011-0.717,0.027   c-0.224,0.017-0.443,0.041-0.664,0.07c-0.009,0-0.017,0-0.022,0.002c0,0,0,0,0.001,0c-3.773,0.498-7.249,2.908-9.355,5.592   C68.338,27.244,66.207,27,64,27c-2.484,0-4.871,0.311-7.101,0.871C54.557,24.786,50.385,22,46,22c-0.498,0-0.987,0.032-1.47,0.082   c-0.121,0.014-0.238,0.034-0.357,0.05c-0.375,0.05-0.744,0.109-1.107,0.188c-0.105,0.021-0.209,0.049-0.314,0.074   c-0.391,0.092-0.773,0.201-1.148,0.326c-0.063,0.021-0.126-0.111-0.188-0.089C40.977,22.785,40.548,23,40.134,23h-0.001   c-4.166,0-7.023,6.072-7.023,10.654c0,1.086,0.182,2.141,0.502,3.148c0.172,0.717,0.413,1.41,0.726,2.072   c0.123,0.348,0.259,0.688,0.416,1.02c0.123,0.348,0.259,0.688,0.416,1.02c0.123,0.346,0.258,0.686,0.415,1.016   c0.121,0.342,0.255,0.678,0.41,1.004c0.124,0.351,0.261,0.694,0.42,1.029c0.122,0.344,0.257,0.682,0.413,1.01   c0.123,0.346,0.258,0.686,0.415,1.017c0.123,0.345,0.258,0.686,0.415,1.017c0.123,0.344,0.257,0.682,0.413,1.012   c0.124,0.347,0.26,0.688,0.417,1.021c0.122,0.341,0.256,0.677,0.411,1.004c0.124,0.35,0.261,0.693,0.42,1.03   c0.123,0.342,0.257,0.68,0.413,1.009c0.123,0.344,0.258,0.684,0.414,1.016c0.123,0.344,0.259,0.686,0.416,1.018   c0.122,0.343,0.257,0.681,0.413,1.01c0.102,0.286,0.215,0.566,0.34,0.843c0.097,0.374,0.208,0.743,0.345,1.104   c-0.381-0.041-0.765-0.069-1.157-0.069c-5.799,0-10.5,4.701-10.5,10.501c0,1.495,0.32,2.913,0.884,4.199   c0.066,0.176,0.136,0.351,0.211,0.521c0.063,0.166,0.128,0.332,0.199,0.494c0.068,0.182,0.139,0.358,0.216,0.533   c0.063,0.167,0.129,0.333,0.2,0.495c0.067,0.179,0.137,0.354,0.214,0.528c0.063,0.168,0.129,0.334,0.2,0.496   c0.067,0.179,0.137,0.354,0.214,0.527c0.063,0.168,0.129,0.334,0.201,0.497c0.067,0.181,0.137,0.354,0.214,0.528   c0.063,0.165,0.127,0.328,0.198,0.488c0.067,0.181,0.137,0.355,0.214,0.529c0.064,0.17,0.13,0.338,0.203,0.504   c0.066,0.176,0.135,0.35,0.211,0.521c0.064,0.17,0.13,0.338,0.203,0.503c0.066,0.176,0.135,0.353,0.211,0.521   c0.064,0.17,0.13,0.338,0.203,0.502c0.065,0.176,0.134,0.35,0.209,0.52c0.064,0.171,0.131,0.34,0.205,0.507   c0.066,0.176,0.135,0.351,0.211,0.521c0.063,0.168,0.129,0.334,0.202,0.498c0.067,0.181,0.137,0.355,0.214,0.529   c0.063,0.167,0.129,0.333,0.2,0.495c0.067,0.179,0.137,0.354,0.214,0.529c0.024,0.063,0.043,0.132,0.069,0.194   c-3.108,3.209-4.407,8.403-3.17,13.682c0.035,0.174,0.066,0.347,0.107,0.521c0.121,0.604,0.265,1.213,0.456,1.819   c0.28,0.89,0.622,1.728,1.007,2.521c0.004,0.014,0.006,0.025,0.011,0.039c0.281,0.893,0.623,1.729,1.008,2.525   c0.003,0.012,0.006,0.023,0.009,0.035c0.281,0.893,0.623,1.732,1.008,2.529c0.003,0.011,0.005,0.021,0.009,0.031   c0.282,0.896,0.625,1.738,1.012,2.541c0.002,0.006,0.003,0.014,0.006,0.021c0.343,1.09,0.768,2.11,1.264,3.057   c0.197,0.522,0.419,1.022,0.655,1.509c0.005,0.017,0.007,0.03,0.012,0.045c0.28,0.891,0.622,1.729,1.007,2.521   c0.004,0.014,0.006,0.025,0.011,0.04c0.281,0.892,0.623,1.729,1.008,2.526c0.003,0.012,0.005,0.021,0.009,0.035   c0.281,0.893,0.624,1.732,1.009,2.529c0.003,0.012,0.005,0.021,0.008,0.029c0.246,0.779,0.544,1.514,0.871,2.22   C49.606,126.746,56.655,128,64,128C87.917,128,108.756,114.871,119.741,95.436z"/>
	<path style="fill:#CC803D;" d="M87,86c0.432-1.961,1-4.751,1-7c0-8.957-4.352-18.846-10-25H64H50c-5.649,6.154-10,16.043-10,25   c0,2.249,0.568,5.039,1,7l15,16c2.356,0.677,5.37,1,8,1c2.705,0,5.578-0.286,8-1L87,86z"/>
	<path style="fill:#BF7839;" d="M78,54H64H50c-0.295,0.32-0.584,0.659-0.872,1H61h14c5.648,6.154,10,16.043,10,25   c0,2.249-0.568,5.039-1,7c0,0-9.377,11.909-14.3,15.521c0.793-0.143,1.571-0.308,2.3-0.521l15-16c0.432-1.961,1-4.751,1-7   C88,70.043,83.648,60.154,78,54z"/>
	<path style="fill:#F5F5F5;" d="M79,82c0,9.256-6.959,17-15,17s-15-7.744-15-17s6.959-17,15-17S79,72.744,79,82z"/>
	<path style="fill:#99602E;" d="M42,45c-5.01-1.611-8.892-6.051-8.892-11.193C33.108,27.287,38.882,22,46,22   c4.446,0,8.677,2.863,11,6L42,45z"/>
	<path style="fill:#8C582A;" d="M57,28c-2.323-3.137-6.554-6-11-6c-2.116,0-4.107,0.477-5.869,1.305C41.055,23.111,42.013,23,43,23   c4.446,0,8.677,2.863,11,6L57,28z"/>
	<path style="fill:#CC803D;" d="M43.062,41c-3.268-1.051-5.799-3.945-5.799-7.3c0-4.252,3.766-7.7,8.407-7.7   c2.9,0,5.659,1.867,7.174,3.913L43.062,41z"/>
	<path style="fill:#99602E;" d="M85.107,45C90.118,43.389,94,38.949,94,33.807C94,27.287,88.227,22,81.107,22   c-4.445,0-8.676,2.863-11,6L85.107,45z"/>
	<path style="fill:#8C582A;" d="M81.107,22c-0.471,0-0.938,0.039-1.403,0.1C86.068,22.82,91,27.783,91,33.807   c0,4.364-2.8,8.215-6.708,10.269L85.107,45C90.118,43.389,94,38.949,94,33.807C94,27.287,88.227,22,81.107,22z"/>
	<path style="fill:#CC803D;" d="M84.046,41c3.269-1.051,5.8-3.945,5.8-7.3c0-4.252-3.767-7.7-8.408-7.7   c-2.898,0-5.658,1.867-7.174,3.913L84.046,41z"/>
	<path style="fill:#CC803D;" d="M86,43c0,8.715-9.88,16-22,16s-22-7.285-22-16c0-8.721,9.88-16,22-16S86,34.279,86,43z"/>
	<path style="fill:#BF7839;" d="M64,27c-0.505,0-1.004,0.018-1.5,0.042C73.924,27.613,83,34.643,83,43   c0,8.352-9.076,15.387-20.5,15.958C62.996,58.982,63.495,59,64,59c12.12,0,22-7.285,22-16C86,34.279,76.12,27,64,27z"/>
	<path style="fill:#F5F5F5;" d="M64,44c-6.075,0-11,3.807-11,8.5c0,1.947,0.857,3.736,2.283,5.17C57.959,58.523,60.906,59,64,59   c3.094,0,6.042-0.479,8.717-1.33C74.143,56.236,75,54.447,75,52.5C75,47.807,70.075,44,64,44z"/>
	<ellipse style="fill:#F5F5F5;" cx="55.596" cy="39.105" rx="4.247" ry="3.889"/>
	<ellipse style="fill:#F5F5F5;" cx="72.586" cy="39.105" rx="4.247" ry="3.889"/>
	
		<ellipse transform="matrix(-0.9537 0.3006 -0.3006 -0.9537 115.4822 172.2205)" style="fill:#99602E;" cx="44.492" cy="94.995" rx="12.258" ry="14.712"/>
	<path style="fill:#8C582A;" d="M56.188,91.314c-2.301-7.301-8.84-11.832-14.99-10.629c4.781,0.896,9.187,4.906,10.99,10.629   c2.443,7.748-0.813,15.683-7.27,17.718c-0.373,0.116-0.749,0.207-1.125,0.28c1.695,0.316,3.436,0.252,5.125-0.28   C55.375,106.997,58.631,99.063,56.188,91.314z"/>
	
		<ellipse transform="matrix(-0.9538 0.3004 -0.3004 -0.9538 119.4537 175.8652)" style="fill:#F5F5F5;" cx="46.205" cy="97.117" rx="6.13" ry="7.357"/>
	<circle style="fill:#F5F5F5;" cx="36" cy="93" r="2"/>
	<circle style="fill:#F5F5F5;" cx="39" cy="87" r="2"/>
	<circle style="fill:#F5F5F5;" cx="46" cy="86" r="2"/>
	
		<ellipse transform="matrix(0.9537 0.3006 -0.3006 0.9537 32.4229 -20.7092)" style="fill:#99602E;" cx="83.508" cy="95.006" rx="12.258" ry="14.712"/>
	<path style="fill:#8C582A;" d="M87.928,80.968c-1.357-0.428-2.746-0.545-4.119-0.417c0.711,0.068,1.42,0.196,2.119,0.417   c6.459,2.035,9.713,9.97,7.271,17.718c-1.93,6.121-6.838,10.281-11.998,10.766c5.847,0.563,11.818-3.854,13.998-10.766   C97.641,90.938,94.385,83.003,87.928,80.968z"/>
	
		<ellipse transform="matrix(0.9538 0.3004 -0.3004 0.9538 32.9529 -20.0838)" style="fill:#F5F5F5;" cx="81.781" cy="97.107" rx="6.13" ry="7.357"/>
	<circle style="fill:#F5F5F5;" cx="92" cy="93" r="2"/>
	<circle style="fill:#F5F5F5;" cx="89" cy="87" r="2"/>
	<circle style="fill:#F5F5F5;" cx="82" cy="86" r="2"/>
	<path style="fill:#242424;" d="M69,54c-0.49,0-0.898,0.354-0.982,0.818c-0.293,0.322-1.521,0.906-3.018,1.105V53   c0-0.059-0.023-0.107-0.033-0.164C66.68,52.311,68,50.504,68,49c0-1.786-1.84-2-4-2s-4,0.214-4,2c0,1.504,1.321,3.311,3.033,3.836   C63.023,52.893,63,52.941,63,53v2.925c-1.497-0.198-2.724-0.782-3.017-1.106C59.898,54.354,59.49,54,59,54c-0.552,0-1,0.447-1,1   c0,1.831,3.554,3,6,3c2.445,0,6-1.169,6-3C70,54.447,69.552,54,69,54z"/>
	<circle style="fill:#99602E;" cx="40.5" cy="67.5" r="10.5"/>
	<path style="fill:#8C582A;" d="M40.5,57c-0.337,0-0.67,0.02-1,0.051C44.829,57.555,49,62.038,49,67.5s-4.171,9.945-9.5,10.449   C39.83,77.98,40.163,78,40.5,78C46.299,78,51,73.3,51,67.5S46.299,57,40.5,57z"/>
	<circle style="fill:#F5F5F5;" cx="38.5" cy="65.5" r="5.5"/>
	<circle style="fill:#99602E;" cx="88.5" cy="67.5" r="10.5"/>
	<path style="fill:#8C582A;" d="M88.5,57c-0.337,0-0.67,0.02-1,0.051C92.829,57.555,97,62.038,97,67.5s-4.171,9.945-9.5,10.449   C87.83,77.98,88.163,78,88.5,78C94.299,78,99,73.3,99,67.5S94.299,57,88.5,57z"/>
	<circle style="fill:#F5F5F5;" cx="90.5" cy="65.5" r="5.5"/>
	<circle style="fill:#242424;" cx="56" cy="39" r="2"/>
	<circle style="fill:#242424;" cx="72" cy="39" r="2"/>
</g>
</svg>
