<?xml version="1.0" encoding="iso-8859-1"?>
<!-- Generator: Adobe Illustrator 15.1.0, SVG Export Plug-In . SVG Version: 6.00 Build 0)  -->
<!DOCTYPE svg PUBLIC "-//W3C//DTD SVG 1.1//EN" "http://www.w3.org/Graphics/SVG/1.1/DTD/svg11.dtd">
<svg xmlns="http://www.w3.org/2000/svg" xmlns:xlink="http://www.w3.org/1999/xlink" version="1.1" id="Layer_1" x="0px" y="0px" width="512" height="512" viewBox="0 0 128 128" style="enable-background:new 0 0 128 128;" xml:space="preserve">
<g>
	<circle style="fill:#88C5CC;" cx="64" cy="63.983" r="64"/>
	<path style="fill:#80B9BF;" d="M71.964,21.872"/>
	<path style="fill:#80B9BF;" d="M47,22.983c-2,3-3,11.024-3,14.514c0,2.895,0.591,5.574,1.645,7.972   c0.068,0.17,0.133,0.343,0.205,0.51c0.069,0.171,0.133,0.345,0.207,0.513c0.069,0.173,0.135,0.347,0.209,0.517   c0.068,0.171,0.133,0.343,0.205,0.51c0.069,0.172,0.135,0.347,0.209,0.516c0.067,0.167,0.129,0.337,0.201,0.501   c0.07,0.174,0.137,0.353,0.211,0.523c0.069,0.17,0.133,0.342,0.206,0.509c0.069,0.172,0.134,0.347,0.208,0.517   c0.069,0.17,0.133,0.342,0.206,0.508c0.069,0.173,0.134,0.349,0.208,0.518c0.069,0.17,0.133,0.342,0.206,0.509   c0.069,0.172,0.133,0.346,0.207,0.514c0.069,0.173,0.134,0.348,0.208,0.517c0.068,0.17,0.133,0.342,0.206,0.509   c0.069,0.172,0.134,0.347,0.208,0.517c0.068,0.171,0.133,0.343,0.206,0.509c0.069,0.173,0.134,0.348,0.208,0.517   c0.068,0.17,0.133,0.343,0.206,0.509c0.069,0.172,0.134,0.349,0.208,0.517c0.068,0.168,0.13,0.338,0.201,0.502   c0.07,0.173,0.136,0.35,0.211,0.521c0.068,0.173,0.134,0.347,0.207,0.518c0.07,0.17,0.134,0.342,0.207,0.509   c0.068,0.172,0.134,0.347,0.207,0.516c0.07,0.171,0.134,0.343,0.207,0.509c0.025,0.065,0.047,0.136,0.074,0.2H38   c0,2.486,0.441,4.897,1.246,7.175c0.057,0.173,0.113,0.347,0.176,0.519c0.258,0.838,0.563,1.651,0.91,2.442   c0.129,0.339,0.27,0.673,0.414,1c0.127,0.334,0.266,0.662,0.408,0.986c0.131,0.344,0.271,0.68,0.419,1.014   c0.129,0.339,0.269,0.673,0.413,1c0.13,0.339,0.27,0.673,0.414,1c0.129,0.339,0.27,0.673,0.414,1c0.129,0.339,0.27,0.673,0.414,1   c0.129,0.339,0.27,0.673,0.414,1c0.129,0.334,0.266,0.662,0.408,0.986c0.131,0.344,0.271,0.68,0.42,1.014   c0.129,0.339,0.269,0.673,0.413,1c0.13,0.339,0.269,0.673,0.414,1c0.129,0.339,0.269,0.673,0.414,1   c0.129,0.339,0.269,0.673,0.414,1c0.129,0.339,0.269,0.673,0.414,1c0.019,0.05,0.033,0.097,0.052,0.146   c0.118,0.381,0.245,0.756,0.383,1.127c0.176,0.512,0.373,1.02,0.588,1.521c0.24,0.757,0.524,1.49,0.84,2.207   c0.13,0.339,0.27,0.673,0.414,1c0.129,0.339,0.27,0.673,0.414,1c0.129,0.339,0.27,0.673,0.414,1c0.129,0.339,0.27,0.673,0.414,1   c0.129,0.334,0.266,0.662,0.408,0.986c0.131,0.344,0.271,0.68,0.42,1.014c0.129,0.339,0.269,0.673,0.413,1   c0.13,0.339,0.269,0.673,0.414,1c0.129,0.339,0.269,0.673,0.414,1c0.129,0.339,0.269,0.673,0.414,1   c0.129,0.339,0.269,0.673,0.414,1c0.129,0.339,0.269,0.673,0.414,1c0.127,0.334,0.265,0.662,0.407,0.986   c0.064,0.17,0.129,0.342,0.197,0.51c0.266,0.877,0.588,1.743,0.967,2.601c0.131,0.334,0.268,0.668,0.414,1   c0.131,0.334,0.268,0.668,0.414,1c0.131,0.334,0.268,0.668,0.414,1c0.129,0.33,0.264,0.658,0.407,0.983   c0.132,0.341,0.271,0.681,0.419,1.017c0.027,0.067,0.053,0.252,0.079,0.319l1.693,17.441c0.005,0,0.009,0,0.014,0   c0.044,0,0.204-0.109,0.204-0.104v-0.058c2,0.133,3.327,0.188,5.036,0.188c19.431,0,36.79-8.699,48.526-22.369   c-0.018-0.039-0.031-0.082-0.049-0.121c-0.068-0.174-0.135-0.35-0.209-0.518c-0.066-0.17-0.133-0.343-0.205-0.509   c-0.068-0.173-0.135-0.349-0.209-0.517c-0.066-0.17-0.133-0.342-0.205-0.508c-0.067-0.175-0.134-0.349-0.209-0.518   c-0.066-0.17-0.132-0.343-0.205-0.509c-0.067-0.173-0.133-0.349-0.209-0.517c-0.066-0.17-0.131-0.344-0.205-0.51   c-0.067-0.172-0.133-0.346-0.207-0.513c-0.067-0.173-0.133-0.349-0.209-0.517c-0.066-0.17-0.131-0.343-0.205-0.508   c-0.067-0.175-0.133-0.35-0.209-0.518c-0.066-0.17-0.131-0.344-0.205-0.51c-0.067-0.172-0.133-0.348-0.209-0.516   c-0.065-0.168-0.129-0.338-0.2-0.5c-0.069-0.176-0.136-0.354-0.212-0.523c-0.067-0.17-0.133-0.344-0.205-0.51   c-0.068-0.172-0.133-0.346-0.207-0.514c-0.068-0.173-0.135-0.348-0.209-0.516c-0.066-0.17-0.133-0.344-0.205-0.51   c-0.068-0.172-0.135-0.349-0.209-0.517c-0.066-0.17-0.132-0.343-0.205-0.509c-0.068-0.173-0.134-0.348-0.209-0.516   c-0.066-0.172-0.132-0.344-0.205-0.51c-0.068-0.174-0.134-0.349-0.209-0.517c-0.066-0.17-0.132-0.343-0.205-0.509   c-0.068-0.172-0.133-0.346-0.207-0.514c-0.068-0.173-0.134-0.349-0.209-0.517c-0.066-0.17-0.132-0.343-0.205-0.509   c-0.066-0.17-0.131-0.342-0.205-0.508c-0.066-0.174-0.133-0.35-0.207-0.518c-0.068-0.174-0.135-0.349-0.209-0.517   c-0.066-0.171-0.133-0.343-0.205-0.509c-0.067-0.174-0.135-0.349-0.209-0.517c-0.066-0.17-0.133-0.344-0.205-0.51   c-0.067-0.172-0.133-0.347-0.207-0.513c-0.067-0.174-0.135-0.35-0.209-0.518c-0.066-0.17-0.133-0.342-0.205-0.508   c-0.067-0.174-0.135-0.35-0.209-0.518c-0.066-0.17-0.133-0.342-0.205-0.508c-0.067-0.175-0.135-0.349-0.209-0.517   c-0.066-0.171-0.133-0.345-0.205-0.51c-0.067-0.173-0.135-0.349-0.209-0.517c-0.066-0.17-0.133-0.344-0.204-0.51   c-0.067-0.168-0.132-0.34-0.203-0.504c-0.068-0.176-0.138-0.354-0.212-0.523c-0.067-0.17-0.133-0.344-0.205-0.51   c-0.066-0.172-0.135-0.348-0.209-0.516c-0.067-0.17-0.133-0.344-0.205-0.51c-0.066-0.172-0.135-0.349-0.209-0.517   c-0.066-0.17-0.132-0.342-0.205-0.508c-0.066-0.174-0.134-0.349-0.209-0.517c-0.066-0.17-0.132-0.344-0.205-0.51   c-0.066-0.174-0.134-0.348-0.209-0.516c-0.066-0.17-0.132-0.344-0.205-0.51c-0.066-0.172-0.133-0.346-0.207-0.514   c-0.066-0.172-0.134-0.349-0.209-0.517c-0.066-0.17-0.132-0.343-0.204-0.509c-0.067-0.174-0.135-0.348-0.21-0.516   c-0.064-0.168-0.129-0.338-0.199-0.5c-0.069-0.178-0.138-0.354-0.213-0.524c-0.066-0.17-0.133-0.343-0.205-0.509   c-0.067-0.174-0.135-0.35-0.209-0.518c-0.066-0.17-0.133-0.342-0.205-0.508c-0.067-0.172-0.134-0.348-0.207-0.514   c-0.067-0.174-0.133-0.348-0.209-0.516c-0.066-0.171-0.131-0.345-0.205-0.511c-0.067-0.172-0.133-0.348-0.209-0.517   c-0.066-0.17-0.131-0.342-0.205-0.508c-0.067-0.174-0.133-0.35-0.209-0.518c-0.066-0.17-0.131-0.343-0.205-0.508   c-0.067-0.174-0.133-0.35-0.209-0.518c-0.066-0.17-0.131-0.343-0.205-0.509c-0.067-0.172-0.133-0.346-0.206-0.514   c-0.067-0.17-0.132-0.343-0.205-0.507c-0.067-0.174-0.134-0.35-0.208-0.518c-0.068-0.174-0.135-0.35-0.209-0.518   c-0.066-0.17-0.133-0.344-0.205-0.51c-0.068-0.172-0.135-0.348-0.209-0.516c-0.066-0.171-0.133-0.343-0.205-0.509   c-0.068-0.174-0.134-0.349-0.209-0.517c-0.066-0.17-0.132-0.343-0.205-0.509c-0.068-0.172-0.133-0.347-0.207-0.515   c-0.068-0.172-0.134-0.348-0.209-0.516c-0.066-0.17-0.132-0.343-0.205-0.509c-0.068-0.173-0.134-0.35-0.209-0.518   c-0.066-0.17-0.132-0.342-0.205-0.508c-0.068-0.174-0.134-0.349-0.209-0.517c-0.066-0.17-0.132-0.343-0.205-0.509   c-0.068-0.175-0.134-0.349-0.209-0.517c-0.066-0.168-0.129-0.338-0.201-0.5c-0.067-0.176-0.135-0.353-0.209-0.521   c-0.067-0.174-0.135-0.349-0.209-0.517c-0.066-0.17-0.133-0.344-0.205-0.51c-0.067-0.173-0.135-0.348-0.209-0.516   c-0.066-0.17-0.133-0.345-0.205-0.511c-0.067-0.172-0.135-0.348-0.209-0.516c-0.066-0.17-0.133-0.343-0.205-0.509   c-0.067-0.173-0.135-0.35-0.209-0.518c-0.066-0.17-0.133-0.342-0.205-0.508c-0.067-0.174-0.135-0.349-0.209-0.517   c-0.066-0.17-0.133-0.343-0.205-0.509c-0.067-0.173-0.133-0.347-0.206-0.515c-0.068-0.172-0.136-0.348-0.21-0.516   c-0.066-0.17-0.133-0.343-0.204-0.509c-0.067-0.17-0.132-0.344-0.205-0.508c-0.067-0.174-0.134-0.35-0.208-0.518   c-0.066-0.174-0.135-0.349-0.209-0.517c-0.066-0.17-0.133-0.344-0.205-0.51c-0.066-0.174-0.134-0.348-0.209-0.516   c-0.066-0.171-0.132-0.344-0.205-0.51c-0.066-0.172-0.133-0.346-0.207-0.514c-0.066-0.173-0.134-0.349-0.209-0.517   c-0.066-0.17-0.132-0.343-0.205-0.509c-0.066-0.173-0.134-0.348-0.209-0.517c-0.066-0.171-0.132-0.343-0.205-0.509   c-0.066-0.174-0.134-0.349-0.209-0.517c-0.066-0.17-0.132-0.343-0.203-0.509c-0.068-0.173-0.136-0.349-0.211-0.517   c-0.066-0.17-0.132-0.344-0.203-0.51c-0.068-0.168-0.132-0.34-0.203-0.504c-0.069-0.176-0.138-0.354-0.213-0.523   c-0.066-0.17-0.133-0.344-0.205-0.51c-0.067-0.172-0.135-0.348-0.209-0.516c-0.066-0.17-0.131-0.343-0.205-0.509   c-0.067-0.174-0.133-0.35-0.209-0.518c-0.066-0.17-0.131-0.343-0.205-0.509c-0.067-0.173-0.133-0.348-0.209-0.516   c-0.066-0.171-0.131-0.344-0.205-0.51c-0.067-0.172-0.133-0.346-0.207-0.514c-0.067-0.173-0.133-0.348-0.209-0.516   c-0.066-0.17-0.131-0.345-0.205-0.511c-0.067-0.172-0.133-0.348-0.209-0.516c-0.066-0.17-0.131-0.343-0.204-0.509   c-0.068-0.173-0.134-0.349-0.209-0.518c-0.066-0.166-0.13-0.336-0.201-0.5c-0.069-0.176-0.136-0.354-0.212-0.522   c-0.066-0.17-0.133-0.343-0.205-0.509c-0.068-0.174-0.135-0.35-0.209-0.518c-0.066-0.17-0.132-0.342-0.205-0.508   c-0.068-0.173-0.133-0.347-0.207-0.514c-0.068-0.173-0.134-0.349-0.209-0.517c-1.965-4.979-6.906-7.849-11.137-10.889L66,6.983   c-5.695,4.747-8.676,11.299-5.542,18.795c0.063,0.169,0.135,0.338,0.206,0.508c0.064,0.172,0.135,0.342,0.207,0.514   c0.018,0.049,0.029,0.096,0.049,0.144c-2.17-1.1-4.329-2.784-5.845-4.734L53,16.983c-1.677,3.354-2.641,10.209-1.145,13.52   c0.063,0.182,0.133,0.349,0.207,0.511c0.063,0.182,0.133,0.35,0.207,0.514c0.047,0.134,0.096,0.262,0.147,0.387   c-0.845-0.197-1.733-0.805-2.549-1.625L47,22.983z"/>
	<g>
		<path style="fill:#E6E6E6;" d="M58.782,127.755c1.723,0.139,3.459,0.229,5.218,0.229s3.495-0.09,5.218-0.229L73,88.983H55    L58.782,127.755z"/>
		<path style="fill:#CCCCCC;" d="M66.2,127.927c1.013-0.033,2.018-0.092,3.018-0.174L73,88.983h-3L66.2,127.927z"/>
		<path style="fill:#CCCCCC;" d="M80,77.983c-0.753,7-7.57,14-16,14c-8.445,0-15.282-7-16-14H80z"/>
		<path style="fill:#B3B3B3;" d="M77,77.983c-0.708,6.58-6.773,13.156-14.502,13.923c0.495,0.05,0.995,0.077,1.502,0.077    c8.43,0,15.247-7,16-14H77z"/>
		<path style="fill:#E6E6E6;" d="M90,58.983c0,13-11.898,24-26,24c-14.102,0-26-11-26-24H90z"/>
		<path style="fill:#CCCCCC;" d="M87,58.983c0,12.535-11.064,23.209-24.5,23.955c0.497,0.026,0.997,0.045,1.5,0.045    c14.102,0,26-11,26-24H87z"/>
		<path style="fill:#FFD464;" d="M44,37.497c0,11.328,8.954,19.486,20,19.486s20-8.158,20-19.486C84,22.01,60,22.983,66,6.983    c-6,5-9,12-5,20c-4-2-8-6-8-10c-2,4-3,13,0,15c-3,0-7-6-6-9C45,25.983,44,34.01,44,37.497z"/>
		<path style="fill:#FFB764;" d="M51,42.983c0,7.18,5.82,12,13,12c7.18,0,13-5.82,13-13c0-9-5-13-12-19    C69,39.983,51,32.983,51,42.983z"/>
		<path style="fill:#CC584C;" d="M64,52.983c-3.46,0-6.951-1.83-6.999-5.914C57,40.983,67,42.983,68,34.983c2,1,4,7,4,10    C72,49.983,67.859,52.983,64,52.983z"/>
	</g>
</g>
</svg>
