<?xml version="1.0" encoding="iso-8859-1"?>
<!-- Generator: Adobe Illustrator 15.1.0, SVG Export Plug-In . SVG Version: 6.00 Build 0)  -->
<!DOCTYPE svg PUBLIC "-//W3C//DTD SVG 1.1//EN" "http://www.w3.org/Graphics/SVG/1.1/DTD/svg11.dtd">
<svg xmlns="http://www.w3.org/2000/svg" xmlns:xlink="http://www.w3.org/1999/xlink" version="1.1" id="Layer_1" x="0px" y="0px" width="512" height="512" viewBox="0 0 128 128" style="enable-background:new 0 0 128 128;" xml:space="preserve">
<g>
	<circle style="fill:#F2CF61;" cx="64" cy="64" r="64"/>
	<path style="fill:#99602E;" d="M26.523,104.305c-0.777,0.778-2.05,0.778-2.829,0l0,0c-0.778-0.775-0.777-2.051,0-2.828   l74.248-74.245c0.776-0.777,2.051-0.778,2.828,0l0,0c0.777,0.776,0.777,2.051,0,2.827L26.523,104.305z"/>
	<path style="fill:#263740;" d="M30.766,30.766c18.354-18.354,48.114-18.354,66.468,0c18.354,18.354,18.354,48.114,0,66.47   L30.766,30.766z"/>
	<path style="fill:#C2E2F2;" d="M42.787,42.787c18.354-18.354,42.73-23.736,54.447-12.021c11.716,11.717,6.334,36.093-12.021,54.447   L42.787,42.787z"/>
	<path style="fill:#263740;" d="M56.929,56.929c18.354-18.354,36.399-30.067,40.305-26.163c3.906,3.905-7.81,21.951-26.164,40.307   L56.929,56.929z"/>
</g>
</svg>
